<svg width="353" height="658" viewBox="0 0 353 658" fill="none" xmlns="http://www.w3.org/2000/svg">
<path d="M301.885 656.615H51.516C44.9094 656.615 38.3673 655.314 32.2635 652.786C26.1597 650.258 20.6136 646.553 15.942 641.881C11.2704 637.209 7.56474 631.663 5.03667 625.559C2.50859 619.456 1.20761 612.914 1.20801 606.307V51.1659C1.20761 44.5592 2.50859 38.0172 5.03667 31.9134C7.56474 25.8096 11.2704 20.2635 15.942 15.5919C20.6136 10.9203 26.1597 7.21463 32.2635 4.68655C38.3673 2.15848 44.9094 0.857516 51.516 0.85791H301.885C308.492 0.857516 315.034 2.15848 321.138 4.68655C327.241 7.21463 332.787 10.9203 337.459 15.5919C342.131 20.2635 345.836 25.8096 348.364 31.9134C350.892 38.0172 352.193 44.5592 352.193 51.1659V606.015C352.193 633.801 329.671 656.615 301.885 656.615Z" fill="white" stroke="#707070"/>
<path d="M332.596 93.8689H20.5117V558.047H332.596V93.8689Z" fill="#453828" stroke="#707070"/>
<path d="M176.7 636.14C192.046 636.14 204.486 623.7 204.486 608.354C204.486 593.008 192.046 580.568 176.7 580.568C161.354 580.568 148.914 593.008 148.914 608.354C148.914 623.7 161.354 636.14 176.7 636.14Z" fill="white" stroke="#707070"/>
<path d="M176.7 638.773C170.742 638.773 164.917 637.006 159.963 633.696C155.009 630.386 151.148 625.681 148.867 620.176C146.587 614.671 145.991 608.614 147.153 602.77C148.316 596.926 151.185 591.558 155.398 587.345C159.611 583.131 164.979 580.262 170.823 579.1C176.667 577.937 182.724 578.534 188.229 580.814C193.734 583.094 198.439 586.956 201.749 591.91C205.059 596.864 206.826 602.689 206.826 608.647C206.832 612.605 206.057 616.525 204.545 620.182C203.033 623.84 200.814 627.163 198.015 629.962C195.217 632.761 191.893 634.979 188.236 636.491C184.578 638.003 180.658 638.779 176.7 638.773ZM176.7 583.2C171.725 583.2 166.862 584.675 162.725 587.439C158.589 590.203 155.365 594.132 153.461 598.728C151.557 603.324 151.059 608.382 152.03 613.261C153 618.141 155.396 622.623 158.914 626.141C162.432 629.658 166.914 632.054 171.793 633.025C176.672 633.995 181.73 633.497 186.326 631.593C190.923 629.689 194.851 626.465 197.615 622.329C200.379 618.192 201.854 613.329 201.854 608.354C201.854 605.051 201.204 601.78 199.94 598.728C198.676 595.676 196.823 592.903 194.487 590.568C192.151 588.232 189.378 586.379 186.326 585.115C183.274 583.851 180.003 583.201 176.7 583.201V583.2Z" fill="url(#paint0_linear)" stroke="#707070"/>
<path d="M222.037 57.6009H133.413C132.871 57.6139 132.333 57.5169 131.83 57.3157C131.327 57.1145 130.871 56.8133 130.488 56.4304C130.105 56.0476 129.804 55.5909 129.603 55.0882C129.402 54.5855 129.305 54.0472 129.318 53.5059V52.6279C129.305 52.0866 129.402 51.5484 129.603 51.0458C129.804 50.5432 130.105 50.0867 130.488 49.7039C130.871 49.3212 131.328 49.0201 131.83 48.819C132.333 48.6178 132.871 48.5209 133.413 48.5339H222.037C222.578 48.5209 223.116 48.6179 223.619 48.8191C224.122 49.0202 224.578 49.3214 224.961 49.7043C225.344 50.0872 225.645 50.5438 225.846 51.0465C226.048 51.5492 226.145 52.0876 226.132 52.6289V53.5069C226.424 55.5539 224.376 57.6009 222.037 57.6009Z" fill="url(#paint1_linear)" stroke="#707070"/>
<path d="M91.0015 60.2329C95.0398 60.2329 98.3135 56.9592 98.3135 52.9209C98.3135 48.8826 95.0398 45.6089 91.0015 45.6089C86.9631 45.6089 83.6895 48.8826 83.6895 52.9209C83.6895 56.9592 86.9631 60.2329 91.0015 60.2329Z" fill="url(#paint2_linear)" stroke="#707070"/>
<path d="M332.596 93.8689H20.5117V157.631H332.596V93.8689Z" fill="#594836" stroke="#707070"/>
<path d="M257.427 112.003H95.6807V139.497H257.427V112.003Z" fill="#755F4D" stroke="#707070"/>
<path d="M157.689 182.785H41.2793V415.02H157.689V182.785Z" fill="#FAA51F" stroke="#707070"/>
<path d="M313.293 184.833H173.776V257.077H313.293V184.833Z" fill="#FDDE68" stroke="#707070"/>
<path d="M233.736 276.381H173.776V541.667H233.736V276.381Z" fill="#F19120" stroke="#707070"/>
<path d="M313.292 276.381H253.332V541.667H313.292V276.381Z" fill="#F19A20" stroke="#707070"/>
<path d="M157.689 432.57H41.2793V541.668H157.689V432.57Z" fill="#FDDE68" stroke="#707070"/>
<defs>
<linearGradient id="paint0_linear" x1="163.505" y1="-302.003" x2="193.089" y2="-338.997" gradientUnits="userSpaceOnUse">
<stop stop-color="#A4A7A9"/>
<stop offset="0.317" stop-color="#E9EAEB"/>
<stop offset="0.509" stop-color="#F1F0F0"/>
<stop offset="0.675" stop-color="#F0EFF0"/>
<stop offset="1" stop-color="#676868"/>
</linearGradient>
<linearGradient id="paint1_linear" x1="129.22" y1="237.31" x2="226.256" y2="237.31" gradientUnits="userSpaceOnUse">
<stop stop-color="#A4A7A9"/>
<stop offset="1" stop-color="#F1F0F0"/>
</linearGradient>
<linearGradient id="paint2_linear" x1="86.4973" y1="243.033" x2="95.725" y2="231.48" gradientUnits="userSpaceOnUse">
<stop stop-color="#A4A7A9"/>
<stop offset="1" stop-color="#F1F0F0"/>
</linearGradient>
</defs>
</svg>
