<svg width="591" height="320" viewBox="0 0 591 320" fill="none" xmlns="http://www.w3.org/2000/svg">
<path d="M498.701 0.657861H92.3644C89.5943 0.65602 86.851 1.20026 84.2914 2.25948C81.7319 3.3187 79.4061 4.87211 77.4474 6.83086C75.4886 8.78962 73.9353 11.1153 72.876 13.6749C71.8168 16.2345 71.2726 18.9778 71.2744 21.7479V294.211H519.66V21.7479C519.688 18.9816 519.166 16.2375 518.124 13.6749C517.082 11.1122 515.541 8.78216 513.591 6.81997C511.641 4.85778 509.321 3.30261 506.765 2.24477C504.209 1.18693 501.468 0.647523 498.701 0.657861Z" fill="#C6C4C4"/>
<path d="M590.265 294.211H0.800781V311.24H590.265V294.211Z" fill="white"/>
<path d="M295.533 311.109H0.800781C0.800781 311.109 13.5068 319.099 24.7728 319.099H566.032C577.297 319.099 590.004 311.109 590.004 311.109H295.533Z" fill="#C6C4C4"/>
<path d="M326.186 302.594H262.654C261.535 302.596 260.427 302.377 259.393 301.95C258.36 301.522 257.42 300.895 256.629 300.104C255.838 299.313 255.211 298.374 254.784 297.34C254.357 296.306 254.138 295.198 254.14 294.08H334.7C334.702 295.198 334.483 296.306 334.055 297.34C333.628 298.374 333.001 299.313 332.21 300.104C331.419 300.895 330.48 301.522 329.446 301.95C328.412 302.377 327.304 302.596 326.186 302.594Z" fill="#C6C4C4"/>
<path d="M495.035 4.19483H95.6398C92.8697 4.19299 90.1264 4.73723 87.5668 5.79645C85.0073 6.85567 82.6815 8.40908 80.7228 10.3678C78.764 12.3266 77.2107 14.6523 76.1514 17.2119C75.0922 19.7714 74.548 22.5147 74.5498 25.2848V294.085H515.863V25.2848C515.894 22.5286 515.378 19.7936 514.346 17.2379C513.314 14.6821 511.785 12.3564 509.848 10.3952C507.911 8.43405 505.605 6.87629 503.062 5.81202C500.52 4.74774 497.791 4.19809 495.035 4.19483Z" fill="#0F1512"/>
<path d="M498.832 25.8088H93.1494V277.445H498.832V25.8088Z" fill="white"/>
<path d="M559.35 303.123H542.45C542.312 303.125 542.175 303.099 542.047 303.047C541.919 302.995 541.803 302.918 541.705 302.82C541.607 302.723 541.53 302.606 541.478 302.478C541.426 302.35 541.4 302.213 541.402 302.075C541.4 301.937 541.426 301.8 541.478 301.671C541.53 301.543 541.607 301.427 541.705 301.329C541.803 301.232 541.919 301.155 542.047 301.103C542.175 301.051 542.312 301.025 542.45 301.027H559.35C559.489 301.025 559.626 301.051 559.754 301.103C559.882 301.155 559.998 301.232 560.096 301.329C560.194 301.427 560.271 301.543 560.323 301.671C560.375 301.8 560.4 301.937 560.398 302.075C560.4 302.213 560.375 302.35 560.323 302.478C560.271 302.606 560.194 302.723 560.096 302.82C559.998 302.918 559.882 302.995 559.754 303.047C559.626 303.099 559.489 303.125 559.35 303.123Z" fill="#C6C4C4"/>
<path d="M498.832 25.8088H93.1494V51.4828H498.832V25.8088Z" fill="#453828"/>
<path d="M106.905 42.9688C109.872 42.9688 112.276 40.5641 112.276 37.5978C112.276 34.6315 109.872 32.2268 106.905 32.2268C103.939 32.2268 101.534 34.6315 101.534 37.5978C101.534 40.5641 103.939 42.9688 106.905 42.9688Z" fill="#F04A2F"/>
<path d="M124.458 42.9688C127.424 42.9688 129.829 40.5641 129.829 37.5978C129.829 34.6315 127.424 32.2268 124.458 32.2268C121.492 32.2268 119.087 34.6315 119.087 37.5978C119.087 40.5641 121.492 42.9688 124.458 42.9688Z" fill="#F9EE40"/>
<path d="M142.666 42.9688C145.632 42.9688 148.037 40.5641 148.037 37.5978C148.037 34.6315 145.632 32.2268 142.666 32.2268C139.7 32.2268 137.295 34.6315 137.295 37.5978C137.295 40.5641 139.7 42.9688 142.666 42.9688Z" fill="#71BF45"/>
<path d="M238.028 82.1349H105.464V269.323H238.028V82.1349Z" fill="#FAA51F"/>
<path d="M381.988 83.0519H249.424V168.066H381.988V83.0519Z" fill="#F19A20"/>
<path d="M381.988 183.654H249.424V268.668H381.988V183.654Z" fill="#FDDE68"/>
<path d="M427.311 83.0519H393.646V269.192H427.311V83.0519Z" fill="#F19120"/>
<path d="M473.813 83.0519H440.148V269.192H473.813V83.0519Z" fill="#FDDE68"/>
</svg>
