<svg width="1776" height="1491" viewBox="0 0 1776 1491" fill="none" xmlns="http://www.w3.org/2000/svg">
<path d="M1766.54 373.905C1766.48 374.273 1766.41 374.646 1766.34 375.014L1566.05 1409.18C1564.75 1415.88 1562.5 1422.23 1559.35 1428.04C1556.31 1433.65 1552.58 1438.52 1548.25 1442.52C1543.93 1446.51 1539.23 1449.44 1534.29 1451.21C1529.2 1453.04 1524.06 1453.56 1519.03 1452.76L-231.3 1171.98C-235.361 1171.33 -239.188 1169.83 -242.675 1167.53C-246.053 1165.3 -249.06 1162.35 -251.613 1158.76C-253.432 1156.2 -255.004 1153.34 -256.286 1150.24C-257.576 1147.13 -258.572 1143.78 -259.249 1140.3C-259.938 1136.75 -260.296 1133.04 -260.315 1129.28C-260.333 1125.41 -259.992 1121.46 -259.3 1117.54C-259.235 1117.17 -259.166 1116.8 -259.095 1116.43L-58.811 82.269C-57.512 75.5613 -55.2576 69.2146 -52.1103 63.4051C-49.073 57.7987 -45.3372 52.927 -41.0067 48.9256C-36.685 44.9323 -31.9901 42.0078 -27.052 40.2334C-21.9542 38.4013 -16.8182 37.8821 -11.7858 38.6892L1738.54 319.464C1742.6 320.116 1746.43 321.614 1749.92 323.918C1753.29 326.15 1756.3 329.1 1758.85 332.687C1760.67 335.244 1762.25 338.109 1763.53 341.204C1764.82 344.315 1765.81 347.662 1766.49 351.15C1767.18 354.701 1767.54 358.409 1767.56 362.17C1767.57 366.039 1767.23 369.987 1766.54 373.905Z" fill="#38B6FF"/>
<path d="M-258.807 1117.63C-259.494 1121.52 -259.833 1125.43 -259.814 1129.27C-259.796 1133 -259.44 1136.68 -258.758 1140.2C-258.087 1143.66 -257.1 1146.97 -255.824 1150.05C-254.556 1153.11 -253.002 1155.94 -251.205 1158.47C-248.688 1162.01 -245.726 1164.91 -242.399 1167.11C-238.972 1169.38 -235.211 1170.85 -231.221 1171.49L1519.11 1452.26C1524.05 1453.06 1529.11 1452.55 1534.13 1450.74C1539 1448.99 1543.64 1446.1 1547.91 1442.15C1552.2 1438.19 1555.9 1433.36 1558.91 1427.8C1562.04 1422.04 1564.27 1415.74 1565.56 1409.08L1765.85 374.919C1765.92 374.548 1765.99 374.178 1766.05 373.818C1766.74 369.93 1767.08 366.012 1767.06 362.173C1767.04 358.442 1766.68 354.766 1766 351.245C1765.33 347.79 1764.34 344.476 1763.07 341.395C1761.8 338.335 1760.24 335.503 1758.45 332.977C1755.93 329.441 1752.97 326.533 1749.64 324.335C1746.21 322.071 1742.45 320.598 1738.46 319.958L-11.8645 39.1828C-16.8124 38.3894 -21.8652 38.9009 -26.8824 40.7041C-31.757 42.4557 -36.3947 45.3454 -40.6669 49.2929C-44.9571 53.2573 -48.6592 58.0854 -51.6701 63.6433C-54.7931 69.4079 -57.0302 75.7066 -58.3196 82.3642L-258.603 1116.53C-258.675 1116.9 -258.743 1117.27 -258.807 1117.63ZM-259.792 1117.45C-259.726 1117.08 -259.658 1116.71 -259.585 1116.34L-59.3017 82.1741C-53.9476 54.5276 -32.6381 34.8377 -11.7062 38.1953L1738.62 318.97C1759.27 322.283 1771.84 346.789 1767.03 373.992C1766.97 374.364 1766.9 374.736 1766.83 375.109L1566.54 1409.27C1561.19 1436.92 1539.88 1456.61 1518.95 1453.25L-231.379 1172.48C-252.029 1169.16 -264.598 1144.66 -259.792 1117.45Z" fill="#38B6FF"/>
</svg>
