<svg width="738" height="462" viewBox="0 0 738 462" fill="none" xmlns="http://www.w3.org/2000/svg">
<g opacity="0.48">
<path opacity="0.48" d="M737.988 280.119L736.574 278.705L710.005 305.274L711.42 306.688L737.988 280.119Z" fill="#9A97F8"/>
<path opacity="0.48" d="M543.548 63.8601C544.668 62.4225 546.102 61.2606 547.741 60.4632C549.38 59.6658 551.179 59.2543 553.001 59.2601C559.401 59.3781 564.832 65.1941 565.001 71.2601C565.03 74.0762 564.039 76.8077 562.211 78.9501" stroke="#0AE4F2" stroke-width="3"/>
<path opacity="0.48" d="M418.996 21.3672V0.367188L436.996 10.8672L418.996 21.3672ZM421.396 4.55419V17.1742L432.214 10.8672L421.396 4.55419Z" fill="#9A97F8"/>
<path opacity="0.48" d="M417.988 86.7773L416.573 85.3633L400.005 101.931L401.419 103.345L417.988 86.7773Z" fill="#F95151"/>
<path opacity="0.48" d="M240.988 51.3823L239.574 49.9683L183.006 106.537L184.42 107.951L240.988 51.3823Z" fill="#0FC565"/>
<path opacity="0.48" d="M12.6028 140.849L0.612766 123.613L21.3848 121.949L12.6028 140.849ZM4.97276 125.681L12.1848 136.041L17.4598 124.681L4.97276 125.681Z" fill="#F48F23"/>
<path opacity="0.48" d="M17.9883 313.862L16.5743 312.448L0.00528145 329.016L1.42028 330.43L17.9883 313.862Z" fill="#1CCEE3"/>
<path opacity="0.48" d="M47.9883 424.906L46.5733 423.492L10.0053 460.061L11.4193 461.475L47.9883 424.906Z" fill="#9A97F8"/>
<g opacity="0.48">
<path opacity="0.48" d="M272.5 404C272.5 409.799 277.201 414.5 283 414.5C288.799 414.5 293.5 409.799 293.5 404C293.5 398.201 288.799 393.5 283 393.5C277.201 393.5 272.5 398.201 272.5 404Z" stroke="#9FD915" stroke-width="3"/>
</g>
<path opacity="0.48" d="M460.992 366.05L460.31 365.367L433.001 392.676L433.684 393.359L460.992 366.05Z" fill="#CED007"/>
</g>
</svg>
