<svg width="1920" height="824" viewBox="0 0 1920 824" fill="none" xmlns="http://www.w3.org/2000/svg">
<g opacity="0.5">
<path opacity="0.5" d="M1888.96 810.908C1888.22 810.306 1887.75 809.436 1887.66 808.489C1887.56 807.542 1887.84 806.596 1888.44 805.857L1899.33 791.929C1899.9 791.167 1900.75 790.664 1901.7 790.529C1902.64 790.394 1903.6 790.638 1904.36 791.208L1917.73 801.661C1918.47 802.263 1918.94 803.133 1919.03 804.08C1919.13 805.027 1918.85 805.974 1918.24 806.713L1907.36 820.641C1906.78 821.403 1905.93 821.906 1904.99 822.041C1904.05 822.176 1903.09 821.931 1902.33 821.361L1888.96 810.908Z" fill="#0FBD8C"/>
<path opacity="0.5" d="M1791.98 457.093C1792.9 457.327 1793.69 457.917 1794.18 458.734C1794.67 459.552 1794.81 460.529 1794.58 461.452L1790.6 478.675C1790.4 479.606 1789.85 480.422 1789.05 480.943C1788.25 481.463 1787.28 481.647 1786.35 481.452L1769.82 477.635C1768.9 477.401 1768.1 476.811 1767.61 475.994C1767.13 475.177 1766.98 474.199 1767.22 473.276L1771.19 456.053C1771.39 455.122 1771.95 454.306 1772.74 453.785C1773.54 453.265 1774.51 453.081 1775.44 453.276L1791.98 457.093Z" fill="#0FBD8C"/>
<path opacity="0.5" d="M1869.86 21.9384C1870.72 22.3441 1871.38 23.0752 1871.71 23.9709C1872.03 24.8667 1871.98 25.854 1871.58 26.7161L1864.38 42.8719C1864.01 43.7493 1863.31 44.4439 1862.43 44.8032C1861.55 45.1625 1860.56 45.1572 1859.68 44.7884L1844.17 37.882C1843.31 37.4763 1842.64 36.7452 1842.32 35.8494C1842 34.9536 1842.04 33.9662 1842.45 33.1039L1849.64 16.9481C1850.01 16.0708 1850.72 15.3763 1851.6 15.0171C1852.48 14.6578 1853.47 14.6632 1854.35 15.032L1869.86 21.9384Z" fill="#0FBD8C"/>
<path opacity="0.5" d="M164.443 148.288C165.057 147.561 165.935 147.108 166.883 147.028C167.832 146.948 168.773 147.247 169.501 147.861L183.238 158.984C183.989 159.569 184.478 160.427 184.596 161.371C184.715 162.316 184.455 163.268 183.871 164.021L173.193 177.208C172.578 177.935 171.7 178.388 170.752 178.468C169.803 178.549 168.862 178.249 168.134 177.636L154.397 166.512C153.646 165.928 153.157 165.069 153.039 164.125C152.92 163.18 153.181 162.227 153.764 161.475L164.443 148.288Z" fill="#0FBD8C"/>
<path opacity="0.5" d="M1599.6 172.282C1598.72 171.921 1598.02 171.226 1597.65 170.349C1597.28 169.472 1597.28 168.486 1597.63 167.604L1603.97 151.102C1604.29 150.208 1604.96 149.479 1605.82 149.075C1606.68 148.67 1607.67 148.623 1608.56 148.943L1624.4 155.024C1625.28 155.385 1625.98 156.08 1626.35 156.957C1626.72 157.833 1626.73 158.821 1626.37 159.703L1620.04 176.205C1619.71 177.098 1619.05 177.827 1618.19 178.232C1617.33 178.636 1616.34 178.684 1615.44 178.363L1599.6 172.282Z" fill="#0FBD8C"/>
<path opacity="0.5" d="M1277.63 651.661C1277.31 650.765 1277.35 649.779 1277.76 648.919C1278.16 648.058 1278.89 647.392 1279.78 647.067L1296.29 640.732C1297.17 640.376 1298.16 640.383 1299.03 640.752C1299.91 641.121 1300.6 641.822 1300.96 642.702L1307.05 658.543C1307.37 659.439 1307.32 660.425 1306.91 661.286C1306.51 662.147 1305.78 662.813 1304.89 663.138L1288.39 669.473C1287.5 669.829 1286.52 669.822 1285.64 669.453C1284.76 669.084 1284.07 668.383 1283.71 667.503L1277.63 651.661Z" fill="#0FBD8C"/>
<path opacity="0.5" d="M76.5811 563.442C76.6587 564.39 76.3579 565.331 75.7443 566.058C75.1308 566.785 74.2544 567.24 73.3064 567.323L55.7188 569.179C54.7744 569.296 53.8223 569.034 53.0705 568.451C52.3186 567.867 51.8281 567.01 51.7061 566.067L49.9243 549.182C49.8464 548.234 50.1471 547.293 50.7606 546.565C51.3742 545.838 52.2508 545.383 53.1988 545.299L70.7864 543.443C71.731 543.327 72.6833 543.589 73.4352 544.173C74.1871 544.756 74.6775 545.613 74.7993 546.557L76.5811 563.442Z" fill="#0FBD8C"/>
<path opacity="0.5" d="M488.606 654.529C489.427 655.01 490.024 655.796 490.268 656.716C490.511 657.635 490.381 658.614 489.905 659.438L481.332 674.905C480.886 675.745 480.125 676.374 479.216 676.655C478.307 676.936 477.323 676.846 476.481 676.404L461.633 668.174C460.811 667.694 460.213 666.908 459.97 665.988C459.726 665.068 459.856 664.089 460.332 663.265L468.905 647.798C469.352 646.958 470.113 646.329 471.022 646.048C471.931 645.767 472.915 645.857 473.758 646.299L488.606 654.529Z" fill="#0FBD8C"/>
<path opacity="0.5" d="M4.99989 25.688C3.78192 25.6617 2.6241 25.1534 1.78047 24.2745C0.936842 23.3957 0.476298 22.218 0.499887 21V5.37499C0.476566 4.15714 0.93723 2.97975 1.78083 2.1011C2.62443 1.22244 3.7821 0.714245 4.99989 0.687988L19.9999 0.687988C21.2177 0.714245 22.3753 1.22244 23.2189 2.1011C24.0625 2.97975 24.5232 4.15714 24.4999 5.37499V21C24.5235 22.218 24.0629 23.3957 23.2193 24.2745C22.3757 25.1534 21.2179 25.6617 19.9999 25.688H4.99989Z" fill="#0FBD8C"/>
</g>
</svg>
