            <svg width="1096" height="1023" viewBox="0 0 1096 1023" fill="none" xmlns="http://www.w3.org/2000/svg">
              <path d="M1258.36 720.171C1255.54 767.422 1233.52 810.281 1232.47 857.831C1231.86 884.911 1230.73 911.978 1229.08 939.031C1227.95 957.561 1225.84 977.753 1213 990.931C1203.9 1000.27 1190.87 1004.36 1178.14 1006.6C1134.28 1014.3 620.006 1028.82 576.696 1018.37C571.05 1017 565.424 1015.66 559.778 1014.29C446.995 987.192 334.017 960.929 220.844 935.505C168.102 923.671 116.196 917.956 70.8358 886.527C50.8628 872.688 44.2968 864.457 35.7218 840.576C27.4618 817.547 21.5848 793.708 16.0438 769.87C7.32284 732.32 -0.645162 694.131 0.443838 655.579C1.53084 617.006 12.4688 577.559 37.5638 548.666C52.4328 531.523 71.7358 518.644 85.4538 500.519C124.268 449.259 108.814 371.345 144.454 317.74C173.523 274.028 231.765 254.262 252.594 205.902C260.541 187.458 261.963 166.86 267.379 147.478C282.917 91.825 330.745 50.331 383.403 28.778C443.23 4.295 511.406 -2.312 574.981 2.227C652.505 7.771 1198.57 2.381 1269.32 35.154C1292.78 46.008 1316.35 58.888 1332.37 79.506C1348.08 99.72 1355.12 125.819 1356.5 151.556C1357.86 177.314 1353.95 203.029 1349.79 228.467C1341.8 277.296 1332.83 325.948 1322.88 374.422C1315.89 408.432 1308.38 442.506 1295.58 474.722C1288.6 492.292 1283.83 510.63 1279.94 529.159C1276.76 544.341 1269.23 565.003 1271.01 579.63C1272.18 589.23 1266.39 602.424 1264.28 611.763C1261.22 625.324 1258.28 638.971 1257.46 652.895C1256.14 675.116 1259.7 697.74 1258.36 720.171Z" fill="#F4F6FD"/>
              <path d="M439.147 466.011H288.099C271.411 466.011 257.758 452.052 257.758 434.99V366.148C257.758 349.086 271.412 335.127 288.099 335.127H439.147C455.835 335.127 469.488 349.087 469.488 366.148V434.989C469.488 452.051 455.835 466.011 439.147 466.011Z" fill="#FFBF00"/>
              <path d="M445.52 466.01H507.062L469.49 422.684L445.52 466.01Z" fill="#FFBF00"/>
              <path d="M288.554 375.528H438.692C440.501 375.504 442.226 374.764 443.491 373.471C444.757 372.178 445.458 370.437 445.443 368.628C445.458 366.819 444.757 365.078 443.491 363.785C442.226 362.492 440.501 361.752 438.692 361.728H288.554C286.745 361.752 285.02 362.492 283.754 363.785C282.489 365.078 281.788 366.819 281.803 368.628C281.788 370.437 282.489 372.178 283.754 373.471C285.02 374.764 286.745 375.504 288.554 375.528Z" fill="white"/>
              <path d="M288.554 407.484H438.692C440.501 407.46 442.226 406.72 443.491 405.427C444.757 404.134 445.458 402.393 445.443 400.584C445.458 398.775 444.757 397.034 443.491 395.741C442.226 394.448 440.501 393.708 438.692 393.684H288.554C286.745 393.708 285.02 394.448 283.754 395.741C282.489 397.034 281.788 398.775 281.803 400.584C281.788 402.393 282.489 404.134 283.754 405.427C285.02 406.72 286.745 407.46 288.554 407.484Z" fill="white"/>
              <path d="M370.374 439.41H438.692C440.501 439.386 442.227 438.646 443.492 437.353C444.757 436.06 445.459 434.319 445.443 432.51C445.459 430.701 444.757 428.96 443.492 427.667C442.227 426.374 440.501 425.634 438.692 425.61H370.374C368.565 425.634 366.84 426.374 365.575 427.667C364.31 428.96 363.608 430.701 363.623 432.51C363.612 434.318 364.315 436.057 365.579 437.349C366.844 438.641 368.567 439.382 370.374 439.41Z" fill="white"/>
              <path d="M801.317 330.603H748.245C731.557 330.603 717.904 316.643 717.904 299.582V285.596C717.904 268.534 731.557 254.575 748.245 254.575H801.317C818.005 254.575 831.658 268.535 831.658 285.596V299.581C831.658 316.643 818.004 330.603 801.317 330.603Z" fill="#FFBF00"/>
              <path d="M749.384 313.361H800.184C801.538 313.342 802.831 312.787 803.778 311.819C804.726 310.85 805.251 309.546 805.241 308.191V276.991C805.251 275.636 804.726 274.332 803.778 273.363C802.831 272.395 801.538 271.84 800.184 271.821H749.384C748.029 271.84 746.737 272.395 745.789 273.363C744.842 274.332 744.316 275.636 744.327 276.991V308.191C744.317 308.863 744.441 309.53 744.691 310.154C744.94 310.778 745.31 311.347 745.78 311.827C746.25 312.308 746.811 312.691 747.429 312.954C748.047 313.217 748.712 313.355 749.384 313.361Z" fill="white"/>
              <path d="M804.25 273.136L777.575 299.582C776.825 300.315 775.818 300.726 774.769 300.726C773.72 300.726 772.712 300.315 771.962 299.582L745.287 273.136" stroke="#FFBF00" stroke-miterlimit="10"/>
              <path d="M749.055 348.699V323.699H774.769L749.055 348.699Z" fill="#FFBF00"/>
              <path d="M882.81 206.233H827.893C826.538 206.214 825.246 205.66 824.298 204.691C823.351 203.722 822.825 202.418 822.836 201.063V167.043C822.825 165.688 823.351 164.384 824.298 163.415C825.246 162.446 826.538 161.892 827.893 161.873H882.81C884.165 161.892 885.457 162.447 886.405 163.415C887.352 164.384 887.878 165.688 887.867 167.043V201.063C887.875 201.735 887.75 202.401 887.5 203.024C887.25 203.648 886.879 204.216 886.41 204.696C885.94 205.176 885.38 205.559 884.763 205.822C884.145 206.086 883.482 206.226 882.81 206.233Z" fill="#54C5ED"/>
              <path d="M823.898 163.295L852.368 191.524C853.169 192.307 854.245 192.745 855.364 192.745C856.484 192.745 857.56 192.307 858.36 191.524L886.83 163.295" stroke="white" stroke-miterlimit="10"/>
              <path d="M572.445 388.276H533.583C532.228 388.257 530.935 387.703 529.988 386.734C529.04 385.765 528.515 384.461 528.526 383.106V360.021C528.515 358.666 529.04 357.362 529.988 356.393C530.935 355.424 532.228 354.87 533.583 354.851H572.445C573.799 354.87 575.092 355.424 576.039 356.393C576.987 357.362 577.513 358.666 577.502 360.021V383.111C577.51 383.783 577.386 384.449 577.136 385.073C576.886 385.696 576.516 386.264 576.046 386.744C575.576 387.224 575.016 387.606 574.398 387.869C573.78 388.132 573.116 388.27 572.445 388.276Z" fill="#54C5ED"/>
              <path d="M529.309 355.937L550.75 377.187C551.353 377.771 552.16 378.098 553 378.098C553.839 378.098 554.646 377.771 555.25 377.187L576.691 355.937" stroke="white" stroke-miterlimit="10"/>
              <path d="M484.583 189.016H445.721C444.366 188.997 443.074 188.443 442.126 187.474C441.179 186.505 440.653 185.201 440.664 183.846V160.761C440.653 159.406 441.179 158.102 442.126 157.133C443.074 156.164 444.366 155.61 445.721 155.591H484.583C485.938 155.61 487.23 156.165 488.178 157.133C489.125 158.102 489.651 159.406 489.64 160.761V183.846C489.648 184.518 489.523 185.184 489.273 185.807C489.023 186.431 488.652 186.999 488.183 187.479C487.713 187.959 487.154 188.342 486.536 188.605C485.918 188.869 485.255 189.009 484.583 189.016Z" fill="#54C5ED"/>
              <path d="M441.449 156.677L462.89 177.927C463.493 178.511 464.3 178.838 465.14 178.838C465.98 178.838 466.787 178.511 467.39 177.927L488.829 156.677" stroke="white" stroke-miterlimit="10"/>
              <path d="M796.11 408.571L794.694 406.971C793.523 405.652 792.923 403.923 793.025 402.163C793.057 401.291 793.264 400.435 793.633 399.645C794.002 398.855 794.526 398.147 795.174 397.563L797.574 395.34C798.201 394.752 798.941 394.297 799.748 394.001C800.555 393.705 801.414 393.575 802.273 393.619C803.131 393.662 803.972 393.878 804.746 394.254C805.519 394.629 806.209 395.157 806.774 395.805L808.19 397.405C808.367 397.612 808.544 397.844 808.721 398.077L808.797 398.155C810.137 399.318 811.275 402.162 810.617 405.655C807.558 421.889 794.207 434.246 778.102 435.72C776.152 435.941 774.182 435.524 772.489 434.531C771.892 434.178 771.355 433.733 770.896 433.213L769.48 431.613C768.324 430.29 767.726 428.571 767.811 426.816C767.896 425.062 768.657 423.408 769.935 422.203L772.335 419.98C772.962 419.392 773.702 418.937 774.509 418.641C775.316 418.345 776.175 418.215 777.034 418.259C777.892 418.302 778.733 418.518 779.507 418.894C780.28 419.269 780.97 419.797 781.535 420.445L782.951 422.045C783.561 422.724 784.018 423.526 784.291 424.397L784.418 424.785L784.797 424.63C791.154 422.041 796.325 417.187 799.31 411.006L799.51 410.592L799.08 410.463C797.923 410.142 796.889 409.484 796.11 408.571Z" fill="#54C5ED"/>
              <path d="M788.145 389.336C788.148 389.742 787.99 390.134 787.706 390.424C787.422 390.715 787.034 390.881 786.628 390.887C781.45 390.953 776.509 393.069 772.888 396.771C769.268 400.473 767.262 405.459 767.311 410.637C767.311 410.836 767.271 411.034 767.195 411.218C767.119 411.402 767.007 411.569 766.866 411.71C766.725 411.851 766.558 411.962 766.374 412.039C766.19 412.115 765.993 412.154 765.794 412.154C765.594 412.154 765.397 412.115 765.213 412.039C765.029 411.962 764.862 411.851 764.721 411.71C764.58 411.569 764.468 411.402 764.392 411.218C764.316 411.034 764.277 410.836 764.277 410.637C764.217 404.645 766.537 398.874 770.727 394.59C774.917 390.305 780.635 387.858 786.628 387.785C787.034 387.791 787.422 387.957 787.706 388.248C787.99 388.538 788.148 388.93 788.145 389.336Z" fill="#54C5ED"/>
              <path d="M788.373 396.936C788.377 397.342 788.219 397.734 787.935 398.024C787.65 398.315 787.263 398.481 786.856 398.487C783.602 398.524 780.495 399.853 778.22 402.179C775.944 404.506 774.685 407.642 774.72 410.896C774.72 411.298 774.561 411.684 774.276 411.969C773.992 412.253 773.606 412.413 773.203 412.413C772.801 412.413 772.415 412.253 772.131 411.969C771.846 411.684 771.686 411.298 771.686 410.896C771.645 406.828 773.219 402.911 776.064 400.003C778.908 397.094 782.79 395.434 786.857 395.385C787.059 395.386 787.259 395.427 787.445 395.506C787.63 395.584 787.799 395.699 787.94 395.843C788.081 395.988 788.192 396.159 788.266 396.346C788.341 396.534 788.377 396.734 788.373 396.936Z" fill="#54C5ED"/>
              <path d="M397.731 533.016L395.986 531.051C394.546 529.426 393.802 527.3 393.913 525.131C394.003 522.962 394.948 520.917 396.543 519.444L399.501 516.704C400.278 515.981 401.191 515.422 402.188 515.06C403.185 514.698 404.245 514.54 405.304 514.595C406.363 514.651 407.4 514.919 408.354 515.383C409.307 515.848 410.158 516.499 410.854 517.299L412.599 519.29C412.824 519.555 413.035 519.831 413.231 520.117L413.307 520.194C414.951 521.642 416.366 525.158 415.557 529.449C411.789 549.458 395.304 564.71 375.457 566.519C373.058 566.787 370.637 566.27 368.557 565.045C367.822 564.604 367.157 564.055 366.585 563.416L364.841 561.425C363.411 559.794 362.672 557.67 362.78 555.504C362.888 553.337 363.836 551.298 365.422 549.818L368.38 547.078C369.157 546.355 370.07 545.796 371.067 545.434C372.064 545.072 373.124 544.914 374.183 544.969C375.242 545.025 376.279 545.293 377.233 545.757C378.186 546.222 379.037 546.873 379.733 547.673L381.478 549.638C382.231 550.477 382.799 551.465 383.146 552.538L383.298 553.029L383.753 552.848C391.595 549.659 397.974 543.672 401.653 536.048L401.906 535.531L401.375 535.376C399.965 534.944 398.702 534.127 397.731 533.016Z" fill="#54C5ED"/>
              <path d="M387.921 509.31C387.925 509.559 387.879 509.806 387.786 510.036C387.694 510.267 387.557 510.478 387.383 510.655C387.209 510.833 387.002 510.975 386.773 511.072C386.545 511.17 386.299 511.221 386.05 511.223C372.902 511.223 362.232 522.158 362.232 535.601C362.232 536.097 362.035 536.573 361.684 536.924C361.333 537.275 360.857 537.472 360.361 537.472C359.865 537.472 359.389 537.275 359.038 536.924C358.687 536.573 358.49 536.097 358.49 535.601C358.49 520.065 370.854 507.401 386.075 507.401C386.573 507.411 387.046 507.617 387.392 507.975C387.738 508.333 387.928 508.813 387.921 509.31Z" fill="#54C5ED"/>
              <path d="M388.224 518.669C388.228 518.918 388.182 519.164 388.09 519.395C387.997 519.626 387.86 519.837 387.686 520.014C387.513 520.192 387.305 520.334 387.077 520.431C386.848 520.529 386.602 520.58 386.354 520.582C382.341 520.631 378.512 522.269 375.706 525.138C372.9 528.006 371.347 531.87 371.385 535.882C371.385 536.378 371.188 536.854 370.837 537.205C370.487 537.556 370.011 537.753 369.514 537.753C369.018 537.753 368.542 537.556 368.191 537.205C367.841 536.854 367.643 536.378 367.643 535.882C367.594 530.866 369.536 526.035 373.044 522.449C376.551 518.863 381.338 516.814 386.354 516.752C386.855 516.76 387.334 516.966 387.684 517.325C388.035 517.684 388.229 518.167 388.224 518.669Z" fill="#54C5ED"/>
              <path d="M532.775 305.294H585.847C602.535 305.294 616.188 291.334 616.188 274.273V260.287C616.188 243.225 602.535 229.266 585.847 229.266H532.775C516.088 229.266 502.434 243.226 502.434 260.287V274.272C502.434 291.334 516.084 305.294 532.775 305.294Z" fill="#FFBF00"/>
              <path d="M585.038 323.389V298.417H559.324L585.038 323.389Z" fill="#FFBF00"/>
              <path d="M567.135 263.829L565.618 262.097C564.372 260.667 563.728 258.81 563.822 256.916C563.917 255.021 564.742 253.237 566.124 251.938L568.703 249.56C569.98 248.371 571.658 247.706 573.403 247.699C574.391 247.697 575.368 247.908 576.267 248.318C577.166 248.729 577.965 249.329 578.611 250.077L580.156 251.808C580.355 252.038 580.541 252.28 580.712 252.532L580.788 252.609C582.229 253.876 583.468 256.952 582.76 260.7C579.473 278.2 565.06 291.54 547.691 293.117C545.589 293.36 543.466 292.905 541.648 291.824C541.003 291.444 540.423 290.964 539.929 290.402L538.384 288.672C537.132 287.245 536.485 285.386 536.579 283.49C536.674 281.594 537.502 279.809 538.89 278.513L541.469 276.135C542.754 274.94 544.442 274.276 546.197 274.274C547.185 274.271 548.162 274.483 549.062 274.893C549.961 275.304 550.76 275.904 551.406 276.652L552.948 278.384C553.601 279.118 554.092 279.981 554.389 280.917L554.515 281.331L554.915 281.176C561.772 278.392 567.35 273.159 570.566 266.493L570.793 266.054L570.338 265.899C569.097 265.524 567.987 264.806 567.135 263.829Z" fill="white"/>
              <path d="M558.539 243.096C558.542 243.314 558.501 243.531 558.42 243.734C558.339 243.937 558.219 244.121 558.066 244.277C557.913 244.434 557.731 244.558 557.53 244.643C557.329 244.729 557.113 244.774 556.895 244.776C551.311 244.848 545.983 247.13 542.078 251.122C538.173 255.115 536.009 260.492 536.061 266.076C536.066 266.295 536.028 266.513 535.948 266.718C535.867 266.922 535.747 267.108 535.594 267.265C535.441 267.422 535.258 267.546 535.056 267.632C534.854 267.717 534.637 267.761 534.417 267.761C534.198 267.761 533.981 267.717 533.779 267.632C533.577 267.546 533.394 267.422 533.241 267.265C533.088 267.108 532.967 266.922 532.887 266.718C532.807 266.513 532.769 266.295 532.774 266.076C532.774 252.476 543.596 241.414 556.895 241.414C557.113 241.416 557.329 241.461 557.531 241.547C557.732 241.633 557.914 241.757 558.067 241.913C558.219 242.07 558.34 242.255 558.421 242.458C558.502 242.661 558.542 242.878 558.539 243.096Z" fill="white"/>
              <path d="M558.791 251.291C558.794 251.509 558.753 251.726 558.672 251.929C558.591 252.132 558.471 252.316 558.318 252.472C558.165 252.629 557.983 252.753 557.782 252.839C557.581 252.924 557.365 252.969 557.147 252.971C553.643 253.015 550.299 254.446 547.849 256.952C545.398 259.457 544.041 262.832 544.075 266.336C544.08 266.555 544.042 266.773 543.962 266.978C543.882 267.182 543.761 267.368 543.608 267.525C543.455 267.682 543.272 267.806 543.07 267.892C542.868 267.977 542.651 268.021 542.432 268.021C542.212 268.021 541.995 267.977 541.793 267.892C541.591 267.806 541.408 267.682 541.255 267.525C541.102 267.368 540.981 267.182 540.901 266.978C540.821 266.773 540.783 266.555 540.788 266.336C540.743 261.95 542.44 257.725 545.507 254.589C548.574 251.453 552.761 249.662 557.147 249.61C557.365 249.612 557.581 249.657 557.782 249.743C557.983 249.828 558.165 249.953 558.318 250.109C558.471 250.265 558.591 250.45 558.673 250.653C558.754 250.856 558.794 251.073 558.791 251.291Z" fill="white"/>
              <path d="M739.366 676.283C718.709 677.083 698.052 676.516 677.42 675.508C665.663 674.939 653.88 674.526 642.098 674.164C631.377 673.854 621.011 677.68 610.265 675.146C601.845 673.156 593.881 667.365 591.201 658.963C588.243 649.682 592.162 639.497 590.801 629.855C588.652 614.5 573.658 602.711 574.012 587.201C574.138 581.824 576.161 576.701 578.133 571.742C580.633 565.46 583.139 559.204 585.642 552.922C587.488 548.295 589.384 543.435 588.954 538.422C588.6 534.26 586.678 530.434 585.212 526.53C578.638 509.055 581.394 489.951 586.173 472.398C590.673 455.798 594.82 439.205 605.212 425.272C612.433 415.425 621.738 407.292 632.464 401.454C643.189 395.616 655.07 392.217 667.261 391.498C679.451 390.78 691.649 392.76 702.986 397.297C714.323 401.835 724.519 408.818 732.847 417.749C748.953 434.862 764.427 457.301 762.834 482.092C762.151 492.792 758.788 504.014 762.885 513.892C767.234 524.392 779.37 531.419 779.775 542.819C780.028 550.057 775.275 556.468 774.01 563.577C771.861 575.693 779.926 586.893 786.551 597.179C796.564 612.69 804.251 632.569 796.791 649.527C792.215 659.867 782.581 667.183 772.139 671.087C761.722 674.993 750.466 675.844 739.366 676.283Z" fill="#0A408A"/>
              <path d="M425.847 780.902L498.919 779.842C526.074 779.454 559.879 778.963 581.619 753.009C595.07 736.981 601.467 717.697 606.372 699.265C611.656 679.411 616.486 659.165 620.708 639.084L595.98 633.655C591.859 653.276 587.131 673.078 581.973 692.466C577.827 707.977 572.618 724.004 562.403 736.154C548.067 753.241 522.884 753.603 498.535 753.965L425.463 755.025L425.847 780.902Z" fill="#E99D86"/>
              <path d="M698.009 561.561H660.209V600.208H698.009V561.561Z" fill="#E99D86"/>
              <path d="M638.033 597.486C583.621 596.586 578.893 725.293 537.604 746C545.543 759.727 550.676 767.973 554.292 775.729C615.555 773.56 638.033 597.486 638.033 597.486Z" fill="#09A8E9"/>
              <path d="M759.396 824.203H598.816L606.3 631.742C607.059 612.147 624.277 596.611 645.238 596.611H712.949C733.91 596.611 751.128 612.148 751.887 631.742L759.396 824.203Z" fill="#54C5ED"/>
              <path d="M679.119 648.596C699.437 648.596 715.908 629.823 715.908 606.666C715.908 583.509 699.437 564.736 679.119 564.736C658.801 564.736 642.33 583.509 642.33 606.666C642.33 629.823 658.801 648.596 679.119 648.596Z" fill="#E99D86"/>
              <path d="M591.483 780.901L663.594 779.841C678.486 779.634 695.376 779.376 711.457 774.441C730.099 768.559 746.469 757.063 758.331 741.525C770.193 725.988 776.967 707.166 777.727 687.633C778.012 678.94 776.998 670.254 774.718 661.86L774.086 659.56C772.443 653.485 770.748 647.203 768.473 640.921L744.756 649.865C746.656 655.139 748.144 660.645 749.712 666.465L750.344 668.817C751.942 674.684 752.65 680.758 752.444 686.835C751.969 699.272 748.077 711.338 741.193 721.708C732.431 735.026 719.352 744.922 704.152 749.731C691.434 753.631 677.072 753.841 663.192 754.048L591.107 755.108L591.483 780.901Z" fill="#E99D86"/>
              <path d="M720.46 597.489C748.5 597.851 780.333 630.089 783.494 658.523C791.686 768.389 715.23 777.231 696.263 780.669C696.238 776.969 693.532 753.732 692.268 743.185C711.029 736.929 739.499 717.851 741.598 687.605C744.505 645.365 720.46 597.489 720.46 597.489Z" fill="#09A8E9"/>
              <path d="M742.127 518.282C738.739 525.856 731.912 530.096 726.906 527.743C721.9 525.39 720.606 517.351 723.998 509.777C727.39 502.203 734.213 497.963 739.219 500.315C744.201 502.668 745.514 510.707 742.127 518.282Z" fill="#DC7B59"/>
              <path d="M611.044 509.798C607.643 502.219 600.833 497.978 595.831 500.322C590.83 502.666 589.534 510.713 592.934 518.292C596.334 525.871 603.147 530.113 608.148 527.768C613.149 525.423 614.447 517.376 611.044 509.798Z" fill="#DC7B59"/>
              <path d="M610.979 521.824C610.65 526.193 609.361 530.898 605.214 532.656C594.62 537.128 590.145 524.956 588.779 516.499C587.937 511.678 587.75 506.765 588.223 501.893C588.956 495.378 595.48 489.614 601.723 493.698C609.384 498.713 611.002 510.449 611.053 518.929C611.055 519.833 611.03 520.815 610.979 521.824Z" fill="#EF4F59"/>
              <path d="M667.159 577.273C703.144 577.273 732.316 540.792 732.316 495.791C732.316 450.79 703.144 414.309 667.159 414.309C631.174 414.309 602.002 450.79 602.002 495.791C602.002 540.792 631.174 577.273 667.159 577.273Z" fill="#F7C6B5"/>
              <path d="M683.266 510.398C687.343 510.398 690.649 505.398 690.649 499.23C690.649 493.062 687.343 488.062 683.266 488.062C679.188 488.062 675.883 493.062 675.883 499.23C675.883 505.398 679.188 510.398 683.266 510.398Z" fill="#0A408A"/>
              <path d="M674.341 471.258C682.685 468.358 691.941 468.544 699.372 473.791C699.941 474.16 700.35 474.728 700.518 475.384C700.687 476.041 700.603 476.736 700.282 477.333C700.117 477.623 699.897 477.878 699.633 478.082C699.369 478.286 699.067 478.435 698.745 478.522C698.422 478.609 698.086 478.63 697.756 478.586C697.425 478.542 697.106 478.432 696.818 478.264C693.844 476.098 690.323 474.809 686.654 474.542C682.911 474.383 679.173 474.962 675.654 476.248C675.002 476.416 674.31 476.32 673.728 475.981C673.146 475.642 672.721 475.088 672.544 474.438C672.387 473.779 672.485 473.084 672.819 472.494C673.153 471.904 673.698 471.462 674.344 471.258H674.341Z" fill="#0A408A"/>
              <path d="M664.885 523.633C664.885 525.52 661.37 527.019 657.022 527.019C652.674 527.019 649.158 525.494 649.158 523.633C649.158 521.746 652.673 520.246 657.022 520.246C661.371 520.246 664.885 521.745 664.885 523.633Z" fill="#E99D86"/>
              <path d="M683.266 487.441H692.419C693.092 487.46 693.731 487.74 694.201 488.223C694.67 488.706 694.933 489.353 694.933 490.026C694.933 490.699 694.67 491.346 694.201 491.829C693.731 492.312 693.092 492.592 692.419 492.611H683.266C682.593 492.592 681.954 492.312 681.484 491.829C681.015 491.346 680.752 490.699 680.752 490.026C680.752 489.353 681.015 488.706 681.484 488.223C681.954 487.74 682.593 487.46 683.266 487.441Z" fill="#0A408A"/>
              <path d="M623.57 499.23C623.57 505.408 626.882 510.398 630.953 510.398C635.024 510.398 638.336 505.409 638.336 499.23C638.336 493.051 635.024 488.062 630.953 488.062C626.882 488.062 623.57 493.051 623.57 499.23Z" fill="#0A408A"/>
              <path d="M638.538 476.225C635.022 474.927 631.282 474.347 627.538 474.519C623.868 474.786 620.347 476.076 617.374 478.242C617.085 478.41 616.767 478.518 616.436 478.562C616.106 478.606 615.77 478.584 615.448 478.498C615.126 478.411 614.824 478.262 614.56 478.058C614.296 477.854 614.075 477.601 613.91 477.311C613.581 476.716 613.493 476.018 613.662 475.36C613.831 474.701 614.245 474.132 614.82 473.769C622.254 468.521 631.508 468.34 639.851 471.236C640.495 471.441 641.037 471.884 641.366 472.475C641.695 473.066 641.786 473.76 641.621 474.416C641.542 474.741 641.399 475.046 641.2 475.314C641.001 475.582 640.751 475.807 640.463 475.976C640.175 476.145 639.856 476.254 639.525 476.297C639.194 476.34 638.857 476.316 638.536 476.226L638.538 476.225Z" fill="#0A408A"/>
              <path d="M630.952 492.611H621.799C621.126 492.592 620.487 492.312 620.017 491.829C619.548 491.346 619.285 490.699 619.285 490.026C619.285 489.353 619.548 488.706 620.017 488.223C620.487 487.74 621.126 487.46 621.799 487.441H630.952C631.625 487.46 632.265 487.74 632.734 488.223C633.204 488.706 633.466 489.353 633.466 490.026C633.466 490.699 633.204 491.346 632.734 491.829C632.265 492.312 631.625 492.592 630.952 492.611Z" fill="#0A408A"/>
              <path d="M631.662 538.316C631.662 552.663 643.015 564.27 657.047 564.27C671.054 564.27 682.432 552.663 682.432 538.316" fill="#333333"/>
              <path d="M635.758 559.229C635.758 564.373 645.29 568.535 657.047 568.535C668.804 568.535 678.336 564.373 678.336 559.229C678.336 554.085 668.804 549.923 657.047 549.923C645.29 549.923 635.758 554.085 635.758 559.229Z" fill="#C94958"/>
              <path d="M682.408 536.946H631.637V545.58H682.408V536.946Z" fill="white"/>
              <path d="M634.719 415.575C651.103 393.653 685.869 392.619 712.468 413.326C739.067 434.033 746.88 469.239 731.001 490.539C715.123 511.87 618.132 437.833 634.719 415.575Z" fill="#0A408A"/>
              <path d="M723.316 521.824C723.645 526.193 724.934 530.898 729.081 532.656C739.675 537.128 744.15 524.956 745.516 516.499C746.358 511.678 746.545 506.765 746.072 501.893C745.339 495.378 738.815 489.614 732.572 493.698C724.911 498.713 723.293 510.449 723.242 518.929C723.241 519.833 723.268 520.815 723.316 521.824Z" fill="#EF4F59"/>
              <path d="M689.639 553.956C684.279 555.43 679.298 560.703 683.239 565.925C687.082 571.018 697.954 568.407 700.533 562.875C702.303 559.101 698.055 554.861 694.718 553.853C693.048 553.411 691.289 553.446 689.639 553.956Z" fill="#EF4F59"/>
              <path d="M732.368 522.986C727.741 542.762 709.868 552.686 693.354 561.194" stroke="#EF4F59" stroke-width="2" stroke-miterlimit="10"/>
              <path d="M666.275 398.333C693.354 399.29 707.362 409.061 719.726 425.994C727.311 436.386 731.711 448.95 733.936 461.72C736.161 474.49 736.363 487.545 736.236 500.497" stroke="#EF4F59" stroke-width="2" stroke-miterlimit="10"/>
              <path d="M668.02 398.333C640.941 399.29 626.933 409.061 614.569 425.994C606.984 436.386 602.584 448.95 600.359 461.72C598.134 474.49 597.932 487.545 598.059 500.497" stroke="#EF4F59" stroke-width="2" stroke-miterlimit="10"/>
              <path d="M554.291 771.105C554.291 754.535 567.439 741.092 583.646 741.092C599.853 741.092 613.001 754.535 613.001 771.105" fill="#E99D86"/>
              <path d="M612.961 771.102H330.814V792.326H612.961V771.102Z" fill="#005CAF"/>
              <path d="M462.312 784.573H241.299C235.231 784.573 229.441 779.015 228.454 772.19L207.772 631.173C206.786 624.373 210.983 618.79 217.152 618.79H441.322C447.466 618.79 453.206 624.348 454.065 631.173L471.79 772.19C472.65 779.015 468.377 784.573 462.312 784.573Z" fill="#005CAF"/>
              <path d="M455.506 792.328H234.497C228.429 792.328 222.639 786.77 221.653 779.945L200.97 638.928C199.984 632.128 204.181 626.545 210.35 626.545H434.52C440.664 626.545 446.404 632.103 447.264 638.928L464.988 779.945C465.848 786.77 461.575 792.328 455.506 792.328Z" fill="#006EC7"/>
              <path d="M318.567 710.897C318.63 713.734 319.529 716.489 321.151 718.818C322.773 721.146 325.046 722.944 327.685 723.986C330.324 725.029 333.213 725.269 335.988 724.677C338.763 724.085 341.302 722.687 343.286 720.658C345.27 718.629 346.611 716.06 347.142 713.273C347.672 710.485 347.368 707.603 346.268 704.987C345.167 702.372 343.319 700.139 340.955 698.569C338.592 696.999 335.817 696.162 332.979 696.162C331.065 696.183 329.174 696.58 327.414 697.332C325.654 698.084 324.059 699.175 322.72 700.543C321.382 701.912 320.326 703.53 319.614 705.307C318.901 707.084 318.546 708.983 318.567 710.897Z" fill="#09A8E9"/>
              <path d="M123.016 829.553H877.626C881.863 829.503 885.907 827.774 888.87 824.744C891.832 821.715 893.471 817.633 893.426 813.396V809.079C893.471 804.842 891.832 800.76 888.87 797.731C885.907 794.701 881.863 792.972 877.626 792.922H123.016C118.779 792.972 114.735 794.701 111.773 797.731C108.81 800.76 107.171 804.842 107.216 809.079V813.396C107.191 815.495 107.581 817.577 108.362 819.525C109.143 821.473 110.3 823.248 111.767 824.749C113.235 826.249 114.984 827.446 116.914 828.27C118.844 829.095 120.917 829.531 123.016 829.553Z" fill="#4089CE"/>
              </svg>