<svg width="767" height="466" viewBox="0 0 767 466" fill="none" xmlns="http://www.w3.org/2000/svg">
<path d="M881.07 328.249C879.093 349.812 863.67 369.371 862.938 391.071C862.513 403.429 861.722 415.781 860.565 428.127C859.774 436.583 858.295 445.798 849.302 451.812C842.928 456.074 833.805 457.942 824.886 458.964C794.172 462.478 433.989 469.101 403.657 464.333C399.702 463.71 395.762 463.097 391.808 462.474C312.818 450.106 233.693 438.12 154.431 426.518C117.492 421.117 81.1387 418.509 49.3702 404.166C35.3818 397.851 30.7832 394.095 24.7776 383.196C18.9926 372.687 14.8765 361.808 10.9958 350.929C4.88791 333.793 -0.692599 316.365 0.0700982 298.771C0.831395 281.168 8.49199 263.166 26.0676 249.981C36.4814 242.157 50.0005 236.28 59.6081 228.009C86.7921 204.616 75.9686 169.059 100.93 144.596C121.289 124.647 162.079 115.627 176.667 93.5576C182.233 85.1406 183.229 75.7405 187.022 66.8954C197.904 41.4976 231.401 22.5615 268.281 12.7256C310.182 1.55261 357.93 -1.46255 402.456 0.608863C456.751 3.13891 839.195 0.679143 888.746 15.6354C905.18 20.5887 921.686 26.4666 932.906 35.8758C943.905 45.1006 948.841 57.0111 949.808 68.7564C950.759 80.5113 948.021 92.2465 945.106 103.855C939.511 126.139 933.228 148.342 926.256 170.463C921.364 185.984 916.105 201.534 907.141 216.236C902.249 224.254 898.91 232.623 896.186 241.079C893.959 248.007 888.686 257.436 889.931 264.111C890.751 268.493 886.694 274.514 885.215 278.776C883.077 284.964 881.013 291.192 880.44 297.547C879.518 307.687 882.007 318.012 881.07 328.249Z" fill="#F4F6FD"/>
<g opacity="0.5">
<g opacity="0.5">
<path opacity="0.5" d="M368.883 97.4744C371.029 100.637 372.946 103.961 374.617 107.417C390.511 140.344 382.527 182.332 364.83 213.364C366.14 195.165 364.706 175.748 358.724 158.731C355.096 148.412 352.774 137.962 349.662 127.474C344.14 108.899 347.539 87.3798 358.494 71.4705C356.387 81.0955 363.52 89.613 368.883 97.4744Z" fill="#54C5ED"/>
<g opacity="0.5">
<path opacity="0.5" d="M364.052 214.865C370.389 189.536 369.574 163.119 366.159 137.568C362.991 113.89 353.309 87.6237 359.54 63.5343" stroke="#09A8E9" stroke-miterlimit="10"/>
</g>
</g>
<g opacity="0.5">
<path opacity="0.5" d="M388.618 122.765C385.397 126.506 382.445 130.488 379.786 134.678C354.53 174.528 358.884 229.199 377.344 271.169C378.246 247.792 382.866 223.196 393.024 202.295C399.184 189.612 403.664 176.61 409.184 163.646C418.953 140.7 417.626 112.802 405.733 91.0195C407.096 103.553 396.654 113.459 388.618 122.765Z" fill="#09A8E9"/>
<g opacity="0.5">
<path opacity="0.5" d="M378.124 273.177C373.522 240.01 378.334 206.407 386.407 174.285C393.876 144.51 410.141 112.296 405.522 80.7203" stroke="#54C5ED" stroke-miterlimit="10"/>
</g>
</g>
<g opacity="0.5">
<path opacity="0.5" d="M423.326 186.554C419.724 188.227 416.25 190.184 412.936 192.407C381.397 213.496 367.485 256.216 368.194 294.34C376.229 277.041 387.432 260.156 401.662 248.017C410.281 240.644 417.751 232.427 425.981 224.622C440.565 210.795 448.335 189.312 446.211 168.693C443.272 178.599 432.316 182.37 423.326 186.554Z" fill="#54C5ED"/>
<g opacity="0.5">
<path opacity="0.5" d="M368.141 296.122C375.114 269.518 389.291 245.916 405.467 224.562C420.459 204.769 442.83 186.27 449.272 160.848" stroke="#09A8E9" stroke-miterlimit="10"/>
</g>
</g>
<g opacity="0.5">
<path opacity="0.5" d="M330.442 156.648C334.313 159.61 337.964 162.871 341.362 166.403C373.716 199.987 379.932 254.453 369.875 299.515C364.513 276.813 355.292 253.737 341.345 235.463C332.885 224.375 326.015 212.593 318.124 201.092C304.159 180.736 300.106 153.119 307.593 129.235C308.672 141.807 320.782 149.275 330.442 156.648Z" fill="#54C5ED"/>
<g opacity="0.5">
<path opacity="0.5" d="M369.503 301.657C367.644 268.186 356.512 236.329 342.459 206.592C329.433 179.031 307.362 150.998 305.84 119.088" stroke="#09A8E9" stroke-miterlimit="10"/>
</g>
</g>
<path opacity="0.5" d="M335.609 292.408H404.476C404.476 333.646 392.388 374.865 392.388 374.865H347.68C347.698 374.865 335.609 333.812 335.609 292.408Z" fill="#FFBF00" fill-opacity="0.72"/>
<path opacity="0.5" d="M409.715 281.301H330.389V292.408H409.715V281.301Z" fill="#FFBF00" fill-opacity="0.72"/>
</g>
<path d="M323.203 145.043H217.469C205.788 145.043 196.23 134.912 196.23 122.529V72.5663C196.23 60.1834 205.788 50.0525 217.469 50.0525H323.203C334.884 50.0525 344.441 60.1841 344.441 72.5663V122.528C344.441 134.911 334.884 145.043 323.203 145.043Z" fill="#FFBF00"/>
<path d="M327.662 145.042H370.742L344.441 113.598L327.662 145.042Z" fill="#FFBF00"/>
<path d="M217.788 79.374H322.885C324.151 79.3564 325.359 78.8197 326.245 77.8812C327.13 76.9428 327.621 75.679 327.611 74.3662V74.3662C327.621 73.0534 327.13 71.7896 326.245 70.8512C325.359 69.9127 324.151 69.3761 322.885 69.3585H217.788C216.522 69.3761 215.314 69.9127 214.429 70.8512C213.543 71.7896 213.052 73.0534 213.063 74.3662C213.052 75.679 213.543 76.9428 214.429 77.8812C215.314 78.8197 216.522 79.3564 217.788 79.374V79.374Z" fill="white"/>
<path d="M217.788 102.566H322.885C324.151 102.549 325.359 102.012 326.245 101.074C327.13 100.135 327.621 98.8713 327.611 97.5585V97.5585C327.621 96.2457 327.13 94.9819 326.245 94.0435C325.359 93.1051 324.151 92.5684 322.885 92.5508H217.788C216.522 92.5684 215.314 93.1051 214.429 94.0435C213.543 94.9819 213.052 96.2457 213.063 97.5585C213.052 98.8713 213.543 100.135 214.429 101.074C215.314 102.012 216.522 102.549 217.788 102.566V102.566Z" fill="white"/>
<path d="M275.062 125.737H322.884C324.15 125.719 325.358 125.183 326.244 124.244C327.13 123.306 327.621 122.042 327.61 120.729C327.621 119.416 327.13 118.153 326.244 117.214C325.358 116.276 324.15 115.739 322.884 115.721H275.062C273.796 115.739 272.588 116.276 271.702 117.214C270.817 118.153 270.325 119.416 270.336 120.729C270.328 122.041 270.821 123.303 271.705 124.241C272.59 125.179 273.797 125.716 275.062 125.737V125.737Z" fill="white"/>
<path d="M644.723 90.7691H607.573C595.891 90.7691 586.334 80.6375 586.334 68.2553V58.1048C586.334 45.7219 595.891 35.5911 607.573 35.5911H644.723C656.405 35.5911 665.962 45.7227 665.962 58.1048V68.2546C665.962 80.6375 656.404 90.7691 644.723 90.7691Z" fill="#FFBF00"/>
<path d="M608.368 78.2556H643.928C644.877 78.2416 645.781 77.8392 646.445 77.1362C647.108 76.4332 647.476 75.4868 647.468 74.5034V51.8597C647.476 50.8764 647.108 49.9299 646.445 49.2269C645.781 48.5239 644.877 48.1215 643.928 48.1075H608.368C607.42 48.1215 606.515 48.5239 605.852 49.2269C605.189 49.9299 604.821 50.8764 604.828 51.8597V74.5034C604.822 74.9911 604.909 75.4753 605.083 75.9283C605.258 76.3812 605.517 76.7938 605.846 77.1425C606.175 77.4912 606.567 77.7691 607 77.9601C607.433 78.1511 607.898 78.2515 608.368 78.2556Z" fill="white"/>
<path d="M646.776 49.0619L628.104 68.2553C627.578 68.7875 626.873 69.0854 626.139 69.0854C625.405 69.0854 624.7 68.7875 624.174 68.2553L605.502 49.0619" stroke="#FFBF00" stroke-miterlimit="10"/>
<path d="M608.139 103.902V85.7585H626.138L608.139 103.902Z" fill="#FFBF00"/>
<path d="M484.513 132.626H457.31C456.361 132.612 455.456 132.21 454.793 131.507C454.13 130.804 453.762 129.857 453.77 128.874V112.119C453.762 111.136 454.13 110.189 454.793 109.486C455.456 108.783 456.361 108.381 457.31 108.367H484.513C485.461 108.381 486.366 108.783 487.029 109.486C487.693 110.189 488.06 111.136 488.053 112.119V128.877C488.059 129.365 487.972 129.849 487.797 130.301C487.622 130.754 487.363 131.166 487.034 131.514C486.705 131.862 486.313 132.14 485.88 132.331C485.448 132.522 484.983 132.622 484.513 132.626V132.626Z" fill="#54C5ED"/>
<path d="M454.318 109.156L469.327 124.578C469.749 125.002 470.314 125.239 470.902 125.239C471.49 125.239 472.055 125.002 472.477 124.578L487.486 109.156" stroke="white" stroke-miterlimit="10"/>
<path d="M641.077 147.355L640.086 146.194C639.266 145.237 638.846 143.982 638.917 142.705C638.94 142.072 639.084 141.451 639.343 140.877C639.601 140.304 639.968 139.79 640.422 139.366L642.102 137.753C642.541 137.326 643.058 136.996 643.623 136.781C644.189 136.566 644.79 136.472 645.391 136.503C645.992 136.535 646.581 136.692 647.122 136.964C647.663 137.237 648.146 137.62 648.542 138.09L649.533 139.251C649.657 139.402 649.781 139.57 649.904 139.739L649.958 139.796C650.896 140.64 651.692 142.704 651.232 145.239C649.09 157.021 639.745 165.989 628.471 167.059C627.106 167.219 625.727 166.917 624.542 166.196C624.124 165.939 623.748 165.617 623.427 165.239L622.436 164.078C621.627 163.118 621.208 161.87 621.267 160.597C621.327 159.323 621.86 158.123 622.754 157.249L624.434 155.635C624.873 155.209 625.391 154.878 625.956 154.664C626.521 154.449 627.122 154.355 627.723 154.386C628.324 154.418 628.913 154.574 629.455 154.847C629.996 155.12 630.479 155.502 630.874 155.973L631.865 157.134C632.292 157.627 632.612 158.209 632.803 158.841L632.892 159.123L633.158 159.01C637.607 157.131 641.227 153.608 643.317 149.122L643.457 148.822L643.156 148.728C642.346 148.496 641.622 148.017 641.077 147.355V147.355Z" fill="#54C5ED"/>
<path d="M635.502 133.395C635.504 133.69 635.393 133.974 635.194 134.185C634.995 134.396 634.724 134.517 634.44 134.521C630.815 134.569 627.357 136.104 624.822 138.791C622.288 141.478 620.884 145.097 620.918 148.855C620.918 148.999 620.89 149.142 620.837 149.276C620.783 149.409 620.705 149.531 620.607 149.633C620.508 149.735 620.391 149.816 620.262 149.872C620.133 149.927 619.995 149.956 619.856 149.956C619.716 149.956 619.578 149.927 619.449 149.872C619.32 149.816 619.203 149.735 619.105 149.633C619.006 149.531 618.928 149.409 618.875 149.276C618.821 149.142 618.794 148.999 618.794 148.855C618.752 144.506 620.376 140.317 623.309 137.208C626.242 134.099 630.245 132.323 634.44 132.27C634.724 132.274 634.995 132.394 635.194 132.605C635.393 132.816 635.504 133.1 635.502 133.395V133.395Z" fill="#54C5ED"/>
<path d="M635.66 138.911C635.662 139.206 635.552 139.49 635.353 139.701C635.154 139.912 634.883 140.032 634.598 140.037C632.32 140.064 630.146 141.028 628.553 142.716C626.96 144.405 626.078 146.681 626.103 149.043C626.103 149.335 625.991 149.615 625.792 149.821C625.593 150.027 625.323 150.143 625.041 150.143C624.759 150.143 624.489 150.027 624.29 149.821C624.091 149.615 623.979 149.335 623.979 149.043C623.95 146.09 625.052 143.247 627.043 141.136C629.034 139.026 631.752 137.821 634.599 137.785C634.74 137.786 634.88 137.816 635.01 137.873C635.14 137.93 635.258 138.013 635.357 138.118C635.455 138.223 635.533 138.347 635.585 138.483C635.637 138.619 635.663 138.764 635.66 138.911V138.911Z" fill="#54C5ED"/>
<path d="M362.213 237.672L360.992 236.246C359.984 235.067 359.463 233.524 359.541 231.95C359.603 230.376 360.265 228.891 361.382 227.822L363.452 225.834C363.996 225.309 364.636 224.904 365.333 224.641C366.031 224.378 366.773 224.263 367.514 224.303C368.256 224.343 368.982 224.538 369.649 224.875C370.317 225.212 370.912 225.685 371.4 226.266L372.621 227.711C372.778 227.903 372.926 228.103 373.063 228.311L373.117 228.367C374.267 229.418 375.258 231.969 374.692 235.084C372.054 249.605 360.515 260.675 346.622 261.988C344.942 262.182 343.248 261.807 341.792 260.918C341.277 260.598 340.812 260.199 340.411 259.736L339.19 258.291C338.189 257.107 337.672 255.566 337.748 253.993C337.823 252.421 338.487 250.941 339.597 249.867L341.668 247.878C342.211 247.354 342.851 246.948 343.549 246.685C344.246 246.422 344.988 246.307 345.73 246.347C346.471 246.388 347.197 246.582 347.865 246.919C348.532 247.257 349.127 247.729 349.615 248.31L350.836 249.736C351.363 250.345 351.761 251.062 352.004 251.841L352.11 252.197L352.429 252.066C357.918 249.751 362.384 245.406 364.959 239.873L365.136 239.498L364.764 239.385C363.777 239.072 362.893 238.479 362.213 237.672Z" fill="#54C5ED"/>
<path d="M355.346 220.467C355.348 220.648 355.316 220.827 355.251 220.995C355.187 221.162 355.091 221.315 354.969 221.444C354.848 221.573 354.702 221.676 354.542 221.746C354.382 221.817 354.21 221.854 354.036 221.856C344.833 221.856 337.364 229.792 337.364 239.549C337.364 239.909 337.226 240.254 336.98 240.509C336.734 240.763 336.401 240.906 336.054 240.906C335.706 240.906 335.373 240.763 335.128 240.509C334.882 240.254 334.744 239.909 334.744 239.549C334.744 228.273 343.399 219.082 354.054 219.082C354.402 219.089 354.733 219.239 354.975 219.498C355.218 219.758 355.351 220.106 355.346 220.467V220.467Z" fill="#54C5ED"/>
<path d="M355.558 227.26C355.56 227.44 355.528 227.619 355.463 227.787C355.399 227.955 355.303 228.107 355.181 228.236C355.059 228.365 354.914 228.468 354.754 228.539C354.594 228.609 354.422 228.647 354.248 228.648C351.439 228.684 348.759 229.873 346.795 231.955C344.831 234.036 343.743 236.84 343.77 239.752C343.77 240.113 343.632 240.458 343.387 240.713C343.141 240.967 342.808 241.11 342.461 241.11C342.113 241.11 341.78 240.967 341.535 240.713C341.289 240.458 341.151 240.113 341.151 239.752C341.117 236.112 342.476 232.606 344.931 230.003C347.386 227.401 350.737 225.914 354.248 225.869C354.599 225.874 354.934 226.024 355.179 226.284C355.425 226.545 355.561 226.896 355.558 227.26V227.26Z" fill="#54C5ED"/>
<g opacity="0.5">
<g opacity="0.5">
<path opacity="0.5" d="M565.448 142.09C563.647 144.745 562.038 147.534 560.635 150.436C547.29 178.072 553.997 213.306 568.847 239.347C567.749 224.075 568.953 207.772 573.979 193.494C577.023 184.826 578.97 176.064 581.572 167.265C586.209 151.674 583.36 133.625 574.156 120.267C575.926 128.337 569.944 135.485 565.448 142.09Z" fill="#54C5ED"/>
<g opacity="0.5">
<path opacity="0.5" d="M569.501 240.588C564.173 219.331 564.864 197.155 567.731 175.71C570.404 155.841 578.511 133.797 573.288 113.571" stroke="#09A8E9" stroke-miterlimit="10"/>
</g>
</g>
<g opacity="0.5">
<path opacity="0.5" d="M548.899 163.308C551.604 166.444 554.077 169.787 556.298 173.308C577.483 206.76 573.838 252.634 558.351 287.848C557.59 268.223 553.714 247.586 545.183 230.062C540.015 219.424 536.263 208.507 531.625 197.621C523.413 178.371 524.528 154.957 534.528 136.664C533.395 147.174 542.14 155.485 548.899 163.308Z" fill="#09A8E9"/>
<g opacity="0.5">
<path opacity="0.5" d="M557.695 289.518C561.553 261.675 557.518 233.496 550.739 206.516C544.456 181.525 530.828 154.509 534.704 127.999" stroke="#54C5ED" stroke-miterlimit="10"/>
</g>
</g>
<g opacity="0.5">
<path opacity="0.5" d="M519.766 216.836C522.792 218.241 525.709 219.884 528.492 221.751C554.969 239.46 566.633 275.297 566.049 307.305C559.306 292.783 549.908 278.618 537.961 268.431C530.722 262.239 524.456 255.354 517.554 248.787C505.324 237.193 498.794 219.144 500.58 201.846C503.023 210.157 512.227 213.327 519.766 216.836Z" fill="#54C5ED"/>
<g opacity="0.5">
<path opacity="0.5" d="M566.068 308.787C560.227 286.46 548.316 266.648 534.741 248.731C522.157 232.127 503.396 216.592 497.98 195.26" stroke="#09A8E9" stroke-miterlimit="10"/>
</g>
</g>
<g opacity="0.5">
<path opacity="0.5" d="M597.715 191.732C594.462 194.222 591.397 196.963 588.545 199.934C561.394 228.132 556.191 273.816 564.616 311.64C569.111 292.597 576.866 273.216 588.563 257.888C595.66 248.583 601.43 238.696 608.049 229.052C619.766 211.96 623.164 188.79 616.881 168.733C615.996 179.275 605.818 185.541 597.715 191.732Z" fill="#54C5ED"/>
<g opacity="0.5">
<path opacity="0.5" d="M564.934 313.439C566.491 285.353 575.836 258.618 587.641 233.665C598.58 210.551 617.092 187.023 618.385 160.232" stroke="#09A8E9" stroke-miterlimit="10"/>
</g>
</g>
<path opacity="0.5" d="M593.377 305.672H535.59C535.59 340.268 545.731 374.865 545.731 374.865H583.251C583.235 374.865 593.377 340.421 593.377 305.672Z" fill="#FFBF00" fill-opacity="0.72"/>
<path opacity="0.5" d="M597.769 296.365H531.186V305.671H597.769V296.365Z" fill="#FFBF00" fill-opacity="0.72"/>
</g>
<path d="M517.356 289.65C502.896 290.23 488.436 289.819 473.993 289.087C465.764 288.674 457.515 288.375 449.268 288.112C441.763 287.887 434.507 290.664 426.985 288.825C421.091 287.38 415.516 283.177 413.64 277.08C411.57 270.344 414.313 262.952 413.36 255.954C411.856 244.81 401.36 236.254 401.608 224.998C401.696 221.095 403.112 217.377 404.493 213.778C406.243 209.219 407.997 204.678 409.749 200.119C411.041 196.761 412.368 193.234 412.067 189.596C411.819 186.575 410.474 183.798 409.448 180.965C404.846 168.282 406.775 154.417 410.121 141.678C413.271 129.631 416.173 117.588 423.448 107.476C428.503 100.329 435.016 94.4269 442.524 90.1899C450.032 85.953 458.349 83.4858 466.882 82.9644C475.415 82.4429 483.954 83.88 491.89 87.1732C499.825 90.4664 506.963 95.5345 512.792 102.016C524.067 114.436 534.898 130.721 533.783 148.714C533.305 156.479 530.951 164.624 533.819 171.793C536.863 179.413 545.358 184.513 545.642 192.787C545.819 198.04 542.492 202.693 541.606 207.852C540.102 216.646 545.748 224.774 550.385 232.239C557.394 243.496 562.775 257.924 557.553 270.231C554.35 277.736 547.606 283.045 540.297 285.879C533.005 288.713 525.126 289.331 517.356 289.65Z" fill="#0A408A"/>
<path d="M297.892 365.578L349.042 364.809C368.051 364.527 391.714 364.171 406.932 345.334C416.348 333.702 420.826 319.706 424.259 306.329C427.958 291.92 431.339 277.226 434.295 262.652L416.985 258.712C414.1 272.952 410.791 287.324 407.18 301.395C404.278 312.652 400.632 324.284 393.481 333.102C383.446 345.503 365.818 345.766 348.773 346.028L297.623 346.798L297.892 365.578Z" fill="#E99D86"/>
<path d="M488.406 206.389H461.945V234.438H488.406V206.389Z" fill="#E99D86"/>
<path d="M446.422 232.462C408.333 231.809 405.023 325.219 376.121 340.248C381.678 350.21 385.272 356.195 387.803 361.824C430.687 360.25 446.422 232.462 446.422 232.462Z" fill="#09A8E9"/>
<path d="M531.377 397.004H418.971L424.21 257.324C424.741 243.102 436.793 231.827 451.466 231.827H498.864C513.537 231.827 525.589 243.103 526.121 257.324L531.377 397.004Z" fill="#54C5ED"/>
<path d="M475.184 269.556C489.407 269.556 500.936 255.931 500.936 239.125C500.936 222.318 489.407 208.693 475.184 208.693C460.961 208.693 449.432 222.318 449.432 239.125C449.432 255.931 460.961 269.556 475.184 269.556Z" fill="#E99D86"/>
<path d="M413.837 365.577L464.315 364.808C474.74 364.658 486.563 364.471 497.819 360.889C510.868 356.62 522.328 348.277 530.631 337C538.934 325.723 543.676 312.063 544.208 297.887C544.407 291.578 543.698 285.274 542.102 279.182L541.66 277.513C540.509 273.104 539.323 268.545 537.73 263.985L521.129 270.477C522.459 274.304 523.5 278.3 524.598 282.524L525.04 284.231C526.159 288.489 526.654 292.897 526.51 297.308C526.178 306.334 523.453 315.091 518.634 322.617C512.501 332.283 503.345 339.465 492.706 342.955C483.803 345.786 473.75 345.938 464.034 346.089L413.574 346.858L413.837 365.577Z" fill="#E99D86"/>
<path d="M504.119 232.464C523.747 232.727 546.03 256.124 548.243 276.76C553.977 356.497 500.458 362.914 487.181 365.409C487.164 362.724 485.27 345.859 484.385 338.205C497.517 333.664 517.446 319.818 518.916 297.867C520.951 267.211 504.119 232.464 504.119 232.464Z" fill="#09A8E9"/>
<path d="M519.287 174.979C516.915 180.476 512.137 183.553 508.632 181.845C505.128 180.138 504.222 174.303 506.597 168.806C508.971 163.309 513.747 160.232 517.251 161.939C520.739 163.647 521.658 169.481 519.287 174.979Z" fill="#DC7B59"/>
<path d="M427.529 168.822C425.148 163.321 420.381 160.243 416.88 161.944C413.379 163.646 412.472 169.485 414.852 174.986C417.232 180.487 422.001 183.565 425.501 181.863C429.002 180.162 429.91 174.322 427.529 168.822Z" fill="#DC7B59"/>
<path d="M427.484 177.55C427.254 180.72 426.352 184.135 423.449 185.411C416.033 188.657 412.9 179.823 411.944 173.685C411.355 170.186 411.224 166.62 411.555 163.084C412.068 158.356 416.635 154.173 421.005 157.137C426.368 160.777 427.5 169.294 427.536 175.448C427.537 176.105 427.52 176.817 427.484 177.55Z" fill="#EF4F59"/>
<path d="M466.811 217.792C492.001 217.792 512.421 191.316 512.421 158.656C512.421 125.996 492.001 99.5195 466.811 99.5195C441.621 99.5195 421.201 125.996 421.201 158.656C421.201 191.316 441.621 217.792 466.811 217.792Z" fill="#F7C6B5"/>
<path d="M478.084 169.257C480.938 169.257 483.252 165.628 483.252 161.152C483.252 156.675 480.938 153.047 478.084 153.047C475.23 153.047 472.916 156.675 472.916 161.152C472.916 165.628 475.23 169.257 478.084 169.257Z" fill="#0A408A"/>
<path d="M471.839 140.851C477.679 138.746 484.159 138.881 489.36 142.689C489.758 142.957 490.044 143.37 490.162 143.846C490.28 144.322 490.221 144.827 489.997 145.26C489.882 145.47 489.727 145.655 489.542 145.803C489.358 145.951 489.146 146.06 488.921 146.123C488.695 146.186 488.46 146.202 488.229 146.169C487.997 146.137 487.774 146.058 487.572 145.936C485.491 144.364 483.026 143.428 480.458 143.234C477.838 143.119 475.221 143.539 472.758 144.472C472.301 144.594 471.817 144.524 471.409 144.279C471.002 144.033 470.704 143.63 470.581 143.159C470.47 142.68 470.539 142.176 470.773 141.748C471.007 141.32 471.388 140.999 471.841 140.851H471.839Z" fill="#0A408A"/>
<path d="M465.218 178.863C465.218 180.232 462.757 181.32 459.714 181.32C456.67 181.32 454.209 180.213 454.209 178.863C454.209 177.493 456.669 176.404 459.714 176.404C462.758 176.404 465.218 177.492 465.218 178.863Z" fill="#E99D86"/>
<path d="M478.084 152.596H484.491C484.962 152.609 485.41 152.813 485.738 153.163C486.067 153.514 486.251 153.983 486.251 154.472C486.251 154.961 486.067 155.43 485.738 155.78C485.41 156.131 484.962 156.334 484.491 156.348H478.084C477.613 156.334 477.165 156.131 476.837 155.78C476.508 155.43 476.324 154.961 476.324 154.472C476.324 153.983 476.508 153.514 476.837 153.163C477.165 152.813 477.613 152.609 478.084 152.596V152.596Z" fill="#0A408A"/>
<path d="M436.297 161.152C436.297 165.636 438.615 169.257 441.465 169.257C444.315 169.257 446.633 165.636 446.633 161.152C446.633 156.667 444.315 153.047 441.465 153.047C438.615 153.047 436.297 156.667 436.297 161.152Z" fill="#0A408A"/>
<path d="M446.777 144.456C444.315 143.514 441.697 143.093 439.076 143.218C436.508 143.411 434.043 144.347 431.962 145.919C431.76 146.041 431.537 146.12 431.305 146.152C431.074 146.184 430.839 146.168 430.614 146.105C430.388 146.042 430.177 145.934 429.992 145.786C429.807 145.638 429.653 145.454 429.537 145.244C429.307 144.812 429.245 144.305 429.363 143.828C429.482 143.35 429.772 142.937 430.174 142.673C435.378 138.864 441.855 138.733 447.696 140.835C448.147 140.984 448.526 141.305 448.756 141.734C448.987 142.163 449.05 142.667 448.935 143.143C448.88 143.378 448.78 143.6 448.64 143.794C448.501 143.989 448.326 144.152 448.124 144.275C447.922 144.398 447.699 144.477 447.467 144.508C447.236 144.539 447 144.522 446.775 144.456L446.777 144.456Z" fill="#0A408A"/>
<path d="M441.466 156.348H435.059C434.587 156.334 434.14 156.131 433.811 155.78C433.483 155.43 433.299 154.961 433.299 154.472C433.299 153.983 433.483 153.514 433.811 153.163C434.14 152.813 434.587 152.609 435.059 152.596H441.466C441.937 152.609 442.384 152.813 442.713 153.163C443.042 153.514 443.226 153.983 443.226 154.472C443.226 154.961 443.042 155.43 442.713 155.78C442.384 156.131 441.937 156.334 441.466 156.348V156.348Z" fill="#0A408A"/>
<path d="M441.961 189.519C441.961 199.931 449.908 208.355 459.73 208.355C469.535 208.355 477.5 199.931 477.5 189.519" fill="#333333"/>
<path d="M444.828 201.962C444.828 204.184 451.501 205.982 459.73 205.982C467.96 205.982 474.633 204.184 474.633 201.962C474.633 199.741 467.96 197.943 459.73 197.943C451.501 197.943 444.828 199.741 444.828 201.962Z" fill="#C94958"/>
<path d="M477.483 188.525H441.943V188.564H477.483V188.525Z" fill="white"/>
<path d="M444.104 100.438C455.573 84.5282 479.909 83.7778 498.528 98.8061C517.148 113.834 522.617 139.386 511.501 154.844C500.387 170.325 432.493 116.592 444.104 100.438Z" fill="#0A408A"/>
<path d="M506.12 177.55C506.35 180.72 507.253 184.135 510.156 185.411C517.571 188.657 520.704 179.823 521.66 173.685C522.249 170.186 522.38 166.62 522.049 163.084C521.536 158.356 516.969 154.173 512.599 157.137C507.237 160.777 506.104 169.294 506.068 175.448C506.068 176.105 506.087 176.817 506.12 177.55Z" fill="#EF4F59"/>
<path d="M482.546 200.87C478.794 201.94 475.307 205.767 478.066 209.556C480.756 213.253 488.366 211.358 490.171 207.343C491.41 204.604 488.437 201.527 486.101 200.795C484.932 200.474 483.701 200.5 482.546 200.87V200.87Z" fill="#EF4F59"/>
<path d="M512.456 178.393C509.218 192.746 496.706 199.948 485.146 206.123" stroke="#EF4F59" stroke-width="2" stroke-miterlimit="10"/>
<path d="M466.191 87.9248C485.147 88.6194 494.952 95.7108 503.607 108C508.917 115.542 511.997 124.661 513.554 133.929C515.112 143.197 515.253 152.671 515.164 162.071" stroke="#EF4F59" stroke-width="2" stroke-miterlimit="10"/>
<path d="M467.411 87.9248C448.456 88.6194 438.65 95.7108 429.996 108C424.686 115.542 421.606 124.661 420.049 133.929C418.491 143.197 418.35 152.671 418.439 162.071" stroke="#EF4F59" stroke-width="2" stroke-miterlimit="10"/>
<path d="M387.803 358.468C387.803 346.442 397.006 336.686 408.351 336.686C419.696 336.686 428.9 346.442 428.9 358.468" fill="#E99D86"/>
<path d="M428.87 358.466H231.367V373.869H428.87V358.466Z" fill="#005CAF"/>
<path d="M323.417 368.242H168.708C164.46 368.242 160.407 364.209 159.717 359.255L145.239 256.911C144.549 251.976 147.487 247.924 151.805 247.924H308.724C313.025 247.924 317.043 251.957 317.644 256.911L330.052 359.255C330.654 364.209 327.663 368.242 323.417 368.242Z" fill="#005CAF"/>
<path d="M318.653 373.871H163.946C159.699 373.871 155.646 369.837 154.956 364.884L140.477 262.539C139.787 257.604 142.725 253.552 147.043 253.552H303.962C308.263 253.552 312.281 257.586 312.883 262.539L325.29 364.884C325.892 369.837 322.901 373.871 318.653 373.871Z" fill="#006EC7"/>
<path d="M222.796 314.771C222.84 316.83 223.469 318.83 224.604 320.52C225.739 322.21 227.33 323.515 229.178 324.271C231.025 325.027 233.047 325.202 234.99 324.772C236.932 324.342 238.709 323.328 240.098 321.855C241.487 320.383 242.426 318.519 242.797 316.495C243.169 314.472 242.956 312.381 242.186 310.482C241.415 308.584 240.122 306.964 238.467 305.824C236.812 304.685 234.87 304.077 232.884 304.077C231.544 304.092 230.22 304.381 228.988 304.926C227.756 305.472 226.64 306.264 225.703 307.257C224.766 308.25 224.027 309.425 223.528 310.714C223.029 312.004 222.78 313.382 222.796 314.771V314.771Z" fill="#09A8E9"/>
<path d="M85.9104 400.887H614.137C617.103 400.851 619.934 399.596 622.008 397.397C624.082 395.198 625.229 392.236 625.197 389.161V386.028C625.229 382.953 624.082 379.99 622.008 377.792C619.934 375.593 617.103 374.338 614.137 374.302H85.9104C82.9445 374.338 80.1138 375.593 78.04 377.792C75.9662 379.991 74.819 382.953 74.8504 386.028V389.161C74.8333 390.684 75.1058 392.196 75.6525 393.609C76.1992 395.023 77.0093 396.311 78.0365 397.4C79.0636 398.49 80.2877 399.358 81.6388 399.956C82.9898 400.554 84.4413 400.871 85.9104 400.887V400.887Z" fill="#4089CE"/>
</svg>
