<svg width="1440" height="395" viewBox="0 0 1440 395" fill="none" xmlns="http://www.w3.org/2000/svg">
<path d="M1440 0H0V161H1440V0Z" fill="#0CE49F"/>
<path fill-rule="evenodd" clip-rule="evenodd" d="M224.644 160.462C225.974 170.412 227.409 181.402 228.87 192.536C240.7 282.656 245.764 371.962 296.363 390.991C334.376 405.285 381.998 375.588 426.1 281.402C470.578 186.418 498.386 162.186 529.453 162.186C539.8 162.186 557.549 163.006 595.588 189.941C616.767 204.939 641.174 221.429 666.874 221.442C692.575 221.455 705.003 212.099 727.162 197.709C749.321 183.319 760.323 185.448 766.568 186.493C799.758 192.069 824.449 245.844 866.307 249.477C919 254.05 950.311 188.191 1002.04 175.277C1053.78 162.363 1083.38 197.43 1104.76 227.67C1129.92 263.269 1161.99 324.17 1206.77 323.685C1247.35 323.245 1268.9 287.541 1292.26 227.921C1315.62 168.301 1335.44 163.91 1348.47 163.91C1361.51 163.91 1377.16 169.273 1395.21 193.389C1410.73 214.125 1425.66 221.316 1440 214.96V160.462H224.644Z" fill="#B5EED5"/>
<path fill-rule="evenodd" clip-rule="evenodd" d="M224.644 160.462C226.024 170.602 227.409 181.402 228.87 192.536C240.7 282.656 257.626 352.35 296.363 365.132C335.101 377.914 374.07 354.896 426.104 264.163C473.971 180.679 498.386 162.186 529.453 162.186C539.8 162.186 560.047 162.875 595.588 183.907C621.68 199.344 666.878 225.062 726.821 194.263C740.865 187.047 753.87 183.907 766.568 186.493C799.12 193.13 822.259 232.363 864.81 235.683C921.57 240.111 950.313 188.189 1002.05 175.275C1053.78 162.361 1085.13 193.953 1106.9 221.92C1135.19 258.274 1161.26 305.046 1206.03 305.581C1235.54 305.934 1263.55 282.279 1289.26 225.332C1314.98 168.386 1335.44 163.91 1348.47 163.91C1361.51 163.91 1377.16 169.273 1395.21 193.389C1410.73 214.125 1425.66 221.316 1440 214.96V160.462H224.644Z" fill="#16D09C"/>
<path fill-rule="evenodd" clip-rule="evenodd" d="M224.644 160.462C226.024 170.602 227.409 181.402 228.87 192.536C240.7 282.656 264.259 336.433 295.614 347.03C325.723 356.081 360.578 354.806 418.602 264.163C472.139 180.531 498.386 162.186 529.453 162.186C539.8 162.186 554.551 161.401 595.588 182.183C623.459 196.297 662.479 214.478 721.562 193.399C742.964 185.762 753.87 183.907 766.568 186.493C799.12 193.13 821.365 218.007 864.81 221.029C914.766 224.505 950.313 188.189 1002.05 175.275C1053.78 162.361 1085.32 193.4 1107.65 221.058C1136.97 257.391 1165.94 296.437 1206.03 293.514C1231.38 291.665 1255.62 279.962 1286.27 223.608C1316.92 167.255 1335.44 163.91 1348.47 163.91C1361.51 163.91 1377.16 169.273 1395.21 193.389C1395.5 193.783 1395.8 194.172 1396.25 194.755C1411.3 214.394 1425.94 221.195 1440 214.96V160.462H224.644Z" fill="#0CE49F"/>
<path fill-rule="evenodd" clip-rule="evenodd" d="M1207.58 276.827C1191.19 276.807 1175.41 269.734 1163.34 257.002C1159.39 252.731 1158.3 249.924 1159.59 248.382C1160.88 246.84 1165.03 250.165 1166.34 250.968C1167.65 251.771 1178.61 260.45 1206.83 260.45C1237.77 260.45 1259.31 223.385 1259.31 223.385C1259.25 223.321 1261.07 219.923 1262.31 220.799C1263.55 221.676 1262.31 226.833 1262.31 226.833C1262.31 226.833 1247.72 276.827 1207.58 276.827Z" fill="white"/>
<path fill-rule="evenodd" clip-rule="evenodd" d="M322.112 331.131C319.842 330.983 303.968 330.281 289.873 313.029C277.382 297.74 274.128 283.723 274.128 283.723C274.128 283.723 272.048 278.051 276.377 275.965C280.706 273.879 283.125 279.413 283.125 279.413C286.946 290.818 292.535 301.332 299.619 310.444C310.408 324.329 320.413 326.851 322.862 327.683C325.311 328.515 326.722 328.925 326.611 330.269C326.499 331.612 324.014 331.254 322.112 331.131ZM271.878 269.931C271.137 269.931 270.412 269.678 269.796 269.205C269.179 268.731 268.699 268.058 268.415 267.271C268.131 266.483 268.057 265.617 268.202 264.781C268.346 263.945 268.703 263.177 269.228 262.574C269.752 261.971 270.42 261.561 271.147 261.394C271.874 261.228 272.628 261.313 273.313 261.64C273.998 261.966 274.584 262.518 274.995 263.227C275.407 263.936 275.627 264.769 275.627 265.621C275.627 266.187 275.53 266.748 275.342 267.271C275.153 267.794 274.877 268.269 274.529 268.669C274.181 269.069 273.768 269.387 273.313 269.603C272.858 269.82 272.371 269.931 271.878 269.931ZM268.879 257.002C268.435 257.002 268 256.85 267.63 256.566C267.26 256.282 266.972 255.878 266.801 255.405C266.631 254.933 266.587 254.413 266.673 253.911C266.76 253.41 266.974 252.949 267.289 252.587C267.603 252.226 268.004 251.979 268.441 251.88C268.877 251.78 269.329 251.831 269.74 252.027C270.151 252.223 270.502 252.554 270.75 252.979C270.997 253.405 271.129 253.904 271.129 254.416C271.129 255.102 270.892 255.759 270.47 256.244C270.048 256.729 269.476 257.002 268.879 257.002Z" fill="white"/>
<path fill-rule="evenodd" clip-rule="evenodd" d="M640.339 180.53C641.52 180.97 649.411 184.897 664.752 186.321C680.092 187.745 691.391 181.215 692.426 183.53C693.461 185.845 682.456 193.13 665.687 192.355C648.309 191.549 637.88 183.013 637.88 183.013C637.88 183.013 635.686 181.408 636.261 180.287C636.836 179.167 639.156 180.091 640.339 180.53Z" fill="white"/>
<path fill-rule="evenodd" clip-rule="evenodd" d="M96.1505 171.38C82.8146 203.169 69.8671 232.162 49.8988 251.417C36.884 263.968 20.4066 269.9 0.466553 269.212V158.384H100.934C99.6227 162.192 97.4671 168.24 96.1505 171.38Z" fill="#B5EED5"/>
<path fill-rule="evenodd" clip-rule="evenodd" d="M96.1505 171.38C70.8487 231.693 38.9541 258.557 0.466553 251.972V158.384H100.934C99.6227 162.192 97.4671 168.24 96.1505 171.38Z" fill="#0CE49F"/>
<path fill-rule="evenodd" clip-rule="evenodd" d="M221.645 163.048C211.876 91.1041 202.671 43.5306 171.811 39.27C137.845 34.5766 127.297 78.1109 97.9351 163.048C97.9351 163.048 128.225 186.305 159.152 186.305C190.079 186.305 221.645 163.048 221.645 163.048Z" fill="#E9FBF3"/>
<path fill-rule="evenodd" clip-rule="evenodd" d="M97.9351 163.048C127.24 78.1109 137.767 34.5766 171.668 39.27C191.037 41.9489 201.859 61.7577 209.649 93.9839L209.641 93.965C207.261 85.4004 203.822 77.2743 199.427 69.8369C192.873 59.1305 182.633 51.7124 167.992 51.7124C150.147 51.7124 137.061 69.8438 123.081 100.907C112.696 123.993 98.0138 162.841 97.9351 163.048Z" fill="#B5EED5"/>
<path fill-rule="evenodd" clip-rule="evenodd" d="M130.175 51.8547C130.175 51.8547 145.13 25.1338 164.664 25.1338C179.62 25.1338 187.906 33.7534 187.906 33.7534C187.865 33.7845 189.756 35.6549 190.559 34.874C191.363 34.093 190.826 33.1397 189.946 31.4692C187.198 26.2543 178.934 16.5142 164.664 16.5142C137.364 16.5142 127.926 50.1307 127.926 50.1307C127.926 50.1307 127.326 51.9331 128.48 52.5347C128.787 52.6678 129.125 52.6725 129.435 52.5482C129.745 52.4239 130.007 52.1784 130.175 51.8547Z" fill="white"/>
</svg>
