<svg width="809" height="733" viewBox="0 0 809 733" fill="none" xmlns="http://www.w3.org/2000/svg">
<path d="M764.258 0.935059H112.258C87.9578 0.935059 68.2578 20.6351 68.2578 44.9351V638.409C68.2578 662.71 87.9578 682.409 112.258 682.409H764.258C788.559 682.409 808.258 662.71 808.258 638.409V44.9351C808.258 20.6351 788.559 0.935059 764.258 0.935059Z" fill="#FFBF00" fill-opacity="0.65"/>
<path d="M696.258 50.9351H44.2577C19.9577 50.9351 0.257812 70.6351 0.257812 94.9351V688.409C0.257812 712.71 19.9577 732.409 44.2577 732.409H696.258C720.559 732.409 740.258 712.71 740.258 688.409V94.9351C740.258 70.6351 720.559 50.9351 696.258 50.9351Z" fill="#38B6FF"/>
</svg>
