<svg width="874" height="721" viewBox="0 0 874 721" fill="none" xmlns="http://www.w3.org/2000/svg">
<g filter="url(#filter0_d)">
<path d="M794 51.0031H131C113.327 51.0031 99 65.3299 99 83.0031V541.003C99 558.676 113.327 573.003 131 573.003H794C811.673 573.003 826 558.676 826 541.003V83.0031C826 65.3299 811.673 51.0031 794 51.0031Z" fill="#F6F9F9"/>
</g>
<path d="M798.196 88.1821H141.667C135.04 88.1821 129.667 93.5547 129.667 100.182V480.997C129.667 487.625 135.04 492.997 141.667 492.997H798.196C804.823 492.997 810.196 487.625 810.196 480.997V100.182C810.196 93.5547 804.823 88.1821 798.196 88.1821Z" fill="white"/>
<path d="M651.385 106.479H321.703C320.046 106.479 318.703 107.822 318.703 109.479V129.781C318.703 131.438 320.046 132.781 321.703 132.781H651.385C653.042 132.781 654.385 131.438 654.385 129.781V109.479C654.385 107.822 653.042 106.479 651.385 106.479Z" fill="#DBE3EA"/>
<path d="M195.433 125.019C196.526 125.311 197.68 125.271 198.751 124.907C199.821 124.542 200.759 123.868 201.447 122.97C202.134 122.072 202.54 120.991 202.613 119.862C202.685 118.734 202.422 117.609 201.855 116.63C201.289 115.651 200.445 114.863 199.43 114.363C198.416 113.864 197.276 113.677 196.155 113.826C195.034 113.975 193.982 114.452 193.132 115.199C192.283 115.945 191.674 116.927 191.382 118.019C190.994 119.484 191.202 121.044 191.961 122.356C192.721 123.668 193.969 124.626 195.433 125.019Z" fill="#FD7A8C"/>
<path d="M176.443 124.909C177.535 125.201 178.69 125.161 179.76 124.797C180.831 124.432 181.769 123.758 182.456 122.86C183.144 121.962 183.55 120.881 183.622 119.752C183.695 118.624 183.432 117.499 182.865 116.52C182.299 115.541 181.455 114.753 180.44 114.253C179.425 113.754 178.286 113.567 177.165 113.716C176.044 113.865 174.992 114.342 174.142 115.089C173.293 115.835 172.684 116.817 172.392 117.909C172.004 119.375 172.212 120.934 172.971 122.246C173.73 123.558 174.979 124.516 176.443 124.909Z" fill="#80EBFF"/>
<path d="M213.795 124.723C214.887 125.015 216.042 124.975 217.112 124.611C218.183 124.246 219.121 123.572 219.809 122.674C220.496 121.776 220.902 120.695 220.974 119.566C221.047 118.438 220.784 117.313 220.217 116.334C219.651 115.355 218.807 114.567 217.792 114.067C216.778 113.568 215.638 113.381 214.517 113.53C213.396 113.679 212.344 114.156 211.494 114.903C210.645 115.649 210.036 116.631 209.744 117.723C209.356 119.188 209.564 120.748 210.323 122.06C211.083 123.372 212.331 124.33 213.795 124.723Z" fill="#FEE895"/>
<path d="M249.645 294.533L278.879 296.322C279.107 296.34 279.336 296.295 279.54 296.192C279.744 296.089 279.917 295.933 280.039 295.739C280.16 295.545 280.227 295.322 280.231 295.093C280.236 294.865 280.177 294.639 280.063 294.441L272.173 280.09C272.072 279.917 271.932 279.769 271.765 279.658C271.598 279.547 271.407 279.476 271.208 279.451C271.009 279.425 270.807 279.446 270.617 279.511C270.427 279.576 270.254 279.684 270.113 279.826L262.792 287.702C262.676 287.831 262.534 287.934 262.375 288.005C262.217 288.076 262.045 288.112 261.871 288.112C261.698 288.112 261.526 288.076 261.368 288.005C261.209 287.934 261.067 287.831 260.951 287.702L257.401 284.07C257.275 283.937 257.122 283.832 256.952 283.763C256.782 283.694 256.599 283.663 256.416 283.671C256.233 283.68 256.054 283.727 255.891 283.812C255.728 283.896 255.585 284.014 255.472 284.158L248.722 292.428C248.569 292.612 248.47 292.834 248.437 293.07C248.403 293.307 248.436 293.548 248.532 293.766C248.628 293.985 248.783 294.173 248.979 294.308C249.176 294.444 249.406 294.521 249.645 294.533Z" fill="white"/>
<path d="M262.711 279.306C263.176 279.297 263.628 279.15 264.01 278.884C264.392 278.619 264.687 278.246 264.859 277.814C265.03 277.381 265.07 276.908 264.973 276.453C264.877 275.997 264.648 275.581 264.315 275.255C263.983 274.93 263.562 274.71 263.104 274.623C262.647 274.535 262.175 274.585 261.746 274.765C261.317 274.946 260.951 275.249 260.693 275.636C260.436 276.024 260.299 276.479 260.299 276.944C260.302 277.258 260.367 277.567 260.49 277.856C260.613 278.144 260.792 278.405 261.016 278.625C261.24 278.844 261.505 279.017 261.795 279.134C262.086 279.251 262.397 279.309 262.711 279.306Z" fill="white"/>
<path d="M316.905 394.928H192.184C191.192 394.928 190.387 395.733 190.387 396.725V399.992C190.387 400.985 191.192 401.789 192.184 401.789H316.905C317.898 401.789 318.702 400.985 318.702 399.992V396.725C318.702 395.733 317.898 394.928 316.905 394.928Z" fill="#EAEEF9"/>
<path d="M335.236 413.224H192.184C191.192 413.224 190.387 414.029 190.387 415.021V418.288C190.387 419.281 191.192 420.085 192.184 420.085H335.236C336.229 420.085 337.033 419.281 337.033 418.288V415.021C337.033 414.029 336.229 413.224 335.236 413.224Z" fill="#EAEEF9"/>
<path d="M299.72 426.945H192.184C191.192 426.945 190.387 427.75 190.387 428.742V432.009C190.387 433.002 191.192 433.806 192.184 433.806H299.72C300.713 433.806 301.517 433.002 301.517 432.009V428.742C301.517 427.75 300.713 426.945 299.72 426.945Z" fill="#EAEEF9"/>
<path d="M466.64 279.306C467.105 279.297 467.557 279.15 467.939 278.884C468.321 278.619 468.617 278.246 468.788 277.814C468.959 277.381 468.999 276.908 468.902 276.453C468.806 275.997 468.577 275.581 468.244 275.255C467.912 274.93 467.491 274.71 467.034 274.623C466.577 274.535 466.104 274.585 465.675 274.765C465.246 274.946 464.88 275.249 464.623 275.636C464.365 276.024 464.228 276.479 464.228 276.944C464.231 277.258 464.296 277.568 464.419 277.856C464.542 278.144 464.721 278.406 464.945 278.625C465.169 278.844 465.434 279.017 465.724 279.134C466.015 279.251 466.327 279.31 466.64 279.306Z" fill="#B7ADF4"/>
<path d="M511.288 394.928H386.567C385.575 394.928 384.77 395.733 384.77 396.725V399.992C384.77 400.985 385.575 401.789 386.567 401.789H511.288C512.28 401.789 513.085 400.985 513.085 399.992V396.725C513.085 395.733 512.28 394.928 511.288 394.928Z" fill="#EAEEF9"/>
<path d="M529.619 413.224H386.567C385.575 413.224 384.77 414.029 384.77 415.021V418.288C384.77 419.281 385.575 420.085 386.567 420.085H529.619C530.611 420.085 531.416 419.281 531.416 418.288V415.021C531.416 414.029 530.611 413.224 529.619 413.224Z" fill="#EAEEF9"/>
<path d="M494.103 426.945H386.567C385.575 426.945 384.77 427.75 384.77 428.742V432.009C384.77 433.002 385.575 433.806 386.567 433.806H494.103C495.095 433.806 495.9 433.002 495.9 432.009V428.742C495.9 427.75 495.095 426.945 494.103 426.945Z" fill="#EAEEF9"/>
<path opacity="0.897" d="M732.2 213.999H604.8C598.835 213.999 594 218.834 594 224.799V345.199C594 351.164 598.835 355.999 604.8 355.999H732.2C738.165 355.999 743 351.164 743 345.199V224.799C743 218.834 738.165 213.999 732.2 213.999Z" fill="#D1D5DF"/>
<path d="M653.302 294.533L682.537 296.322C682.765 296.34 682.993 296.295 683.198 296.192C683.402 296.089 683.575 295.932 683.696 295.739C683.818 295.545 683.885 295.322 683.889 295.093C683.894 294.865 683.835 294.639 683.721 294.441L675.837 280.093C675.736 279.92 675.596 279.772 675.429 279.661C675.262 279.55 675.072 279.479 674.873 279.454C674.674 279.428 674.472 279.449 674.282 279.514C674.092 279.579 673.92 279.687 673.779 279.829L666.458 287.705C666.341 287.834 666.199 287.937 666.041 288.008C665.882 288.079 665.71 288.115 665.536 288.115C665.362 288.115 665.191 288.079 665.032 288.008C664.873 287.937 664.731 287.834 664.615 287.705L661.065 284.073C660.939 283.939 660.786 283.835 660.616 283.766C660.446 283.697 660.263 283.665 660.08 283.674C659.897 283.682 659.718 283.73 659.555 283.814C659.392 283.898 659.249 284.017 659.136 284.161L652.384 292.431C652.232 292.614 652.134 292.836 652.101 293.071C652.067 293.307 652.1 293.547 652.195 293.765C652.29 293.983 652.444 294.17 652.64 294.306C652.835 294.441 653.064 294.52 653.302 294.533Z" fill="white"/>
<path d="M666.369 279.306C666.834 279.297 667.286 279.15 667.668 278.884C668.05 278.619 668.346 278.246 668.517 277.814C668.688 277.381 668.728 276.908 668.631 276.453C668.535 275.997 668.306 275.581 667.973 275.255C667.641 274.93 667.22 274.71 666.763 274.623C666.306 274.535 665.833 274.585 665.404 274.765C664.975 274.946 664.609 275.249 664.352 275.636C664.094 276.024 663.957 276.479 663.957 276.944C663.96 277.258 664.025 277.567 664.148 277.856C664.271 278.144 664.45 278.405 664.674 278.625C664.898 278.844 665.163 279.017 665.454 279.134C665.745 279.251 666.056 279.309 666.369 279.306Z" fill="white"/>
<path d="M722.473 394.928H597.752C596.76 394.928 595.955 395.733 595.955 396.725V399.992C595.955 400.985 596.76 401.789 597.752 401.789H722.473C723.466 401.789 724.27 400.985 724.27 399.992V396.725C724.27 395.733 723.466 394.928 722.473 394.928Z" fill="#C5C9D5"/>
<path d="M740.804 413.224H597.752C596.76 413.224 595.955 414.029 595.955 415.021V418.288C595.955 419.281 596.76 420.085 597.752 420.085H740.804C741.797 420.085 742.601 419.281 742.601 418.288V415.021C742.601 414.029 741.797 413.224 740.804 413.224Z" fill="#C5C9D5"/>
<path d="M705.288 426.945H597.752C596.76 426.945 595.955 427.75 595.955 428.742V432.009C595.955 433.002 596.76 433.806 597.752 433.806H705.288C706.281 433.806 707.085 433.002 707.085 432.009V428.742C707.085 427.75 706.281 426.945 705.288 426.945Z" fill="#C5C9D5"/>
<defs>
<filter id="filter0_d" x="0" y="0.00305176" width="925" height="720" filterUnits="userSpaceOnUse" color-interpolation-filters="sRGB">
<feFlood flood-opacity="0" result="BackgroundImageFix"/>
<feColorMatrix in="SourceAlpha" type="matrix" values="0 0 0 0 0 0 0 0 0 0 0 0 0 0 0 0 0 0 127 0"/>
<feOffset dy="48"/>
<feGaussianBlur stdDeviation="49.5"/>
<feColorMatrix type="matrix" values="0 0 0 0 0.239216 0 0 0 0 0.25098 0 0 0 0 0.309804 0 0 0 0.078 0"/>
<feBlend mode="normal" in2="BackgroundImageFix" result="effect1_dropShadow"/>
<feBlend mode="normal" in="SourceGraphic" in2="effect1_dropShadow" result="shape"/>
</filter>
</defs>
</svg>
