<svg width="122" height="148" viewBox="0 0 122 148" fill="none" xmlns="http://www.w3.org/2000/svg">
<path opacity="0.2" d="M34.7267 128.738C53.5746 128.738 68.8538 112.896 68.8538 93.3549C68.8538 73.8134 53.5746 57.9719 34.7267 57.9719C15.8788 57.9719 0.599609 73.8134 0.599609 93.3549C0.599609 112.896 15.8788 128.738 34.7267 128.738Z" fill="white"/>
<path opacity="0.2" d="M63.563 44.2583C75.2518 44.2583 84.7275 34.4339 84.7275 22.3149C84.7275 10.196 75.2518 0.371582 63.563 0.371582C51.8741 0.371582 42.3984 10.196 42.3984 22.3149C42.3984 34.4339 51.8741 44.2583 63.563 44.2583Z" fill="white"/>
<path opacity="0.2" d="M100.601 147.391C112.29 147.391 121.766 137.566 121.766 125.447C121.766 113.328 112.29 103.504 100.601 103.504C88.9122 103.504 79.4365 113.328 79.4365 125.447C79.4365 137.566 88.9122 147.391 100.601 147.391Z" fill="white"/>
</svg>
