<svg    viewBox="0 0 1920 2198" fill="none" xmlns="http://www.w3.org/2000/svg">
<path fill-rule="evenodd" clip-rule="evenodd" d="M1920 79.999H0V79.983C218.935 31.414 567.451 -0.000976562 960 -0.000976562C1352.55 -0.000976562 1701.06 31.414 1920 79.983V79.999Z" fill="#0CE49F"/>
<path d="M1920 79H0V1929H1920V79Z" fill="#0CE49F"/>
<path fill-rule="evenodd" clip-rule="evenodd" d="M299 1926.59C300.774 1938.13 302.688 1950.88 304.637 1963.8C320.415 2068.35 327.17 2171.96 394.657 2194.04C445.357 2210.62 508.873 2176.17 567.695 2066.9C627.018 1956.7 664.108 1928.59 705.544 1928.59C719.344 1928.59 743.018 1929.54 793.753 1960.79C822.001 1978.19 854.553 1997.32 888.832 1997.34C923.111 1997.35 939.687 1986.5 969.242 1969.8C998.797 1953.11 1013.47 1955.58 1021.8 1956.79C1066.07 1963.26 1099 2025.64 1154.83 2029.86C1225.11 2035.17 1266.87 1958.76 1335.87 1943.78C1404.87 1928.8 1444.35 1969.48 1472.86 2004.56C1506.43 2045.86 1549.2 2116.51 1608.93 2115.95C1663.05 2115.44 1691.8 2074.02 1722.95 2004.85C1754.11 1935.68 1780.55 1930.59 1797.93 1930.59C1815.31 1930.59 1836.19 1936.81 1860.26 1964.79C1880.96 1988.85 1900.88 1997.19 1920 1989.81V1926.59H299Z" fill="#B5EED5"/>
<path fill-rule="evenodd" clip-rule="evenodd" d="M299 1926.59C300.841 1938.35 302.688 1950.88 304.637 1963.8C320.415 2068.35 342.99 2149.21 394.657 2164.04C446.324 2178.86 498.3 2152.16 567.7 2046.9C631.544 1950.04 664.108 1928.59 705.544 1928.59C719.344 1928.59 746.349 1929.39 793.753 1953.79C828.553 1971.7 888.837 2001.53 968.787 1965.8C987.518 1957.43 1004.86 1953.79 1021.8 1956.79C1065.22 1964.49 1096.08 2010.01 1152.83 2013.86C1228.54 2018.99 1266.87 1958.76 1335.87 1943.77C1404.87 1928.79 1446.69 1965.44 1475.72 1997.89C1513.45 2040.07 1548.22 2094.33 1607.93 2094.95C1647.29 2095.36 1684.65 2067.91 1718.95 2001.85C1753.26 1935.78 1780.55 1930.59 1797.93 1930.59C1815.31 1930.59 1836.19 1936.81 1860.26 1964.79C1880.96 1988.85 1900.88 1997.19 1920 1989.81V1926.59H299Z" fill="#16D09C"/>
<path fill-rule="evenodd" clip-rule="evenodd" d="M299 1926.59C300.841 1938.35 302.688 1950.88 304.637 1963.8C320.415 2068.35 351.837 2130.74 393.657 2143.04C433.816 2153.54 480.304 2152.06 557.695 2046.9C629.1 1949.87 664.108 1928.59 705.544 1928.59C719.344 1928.59 739.019 1927.68 793.753 1951.79C830.926 1968.16 882.969 1989.26 961.772 1964.8C990.318 1955.94 1004.86 1953.79 1021.8 1956.79C1065.22 1964.49 1094.89 1993.35 1152.83 1996.86C1219.46 2000.89 1266.87 1958.76 1335.87 1943.77C1404.87 1928.79 1446.94 1964.8 1476.72 1996.89C1515.83 2039.04 1554.47 2084.34 1607.93 2080.95C1641.76 2078.8 1674.08 2065.23 1714.95 1999.85C1755.83 1934.47 1780.55 1930.59 1797.93 1930.59C1815.31 1930.59 1836.19 1936.81 1860.26 1964.79C1860.65 1965.25 1861.05 1965.7 1861.64 1966.37C1881.72 1989.16 1901.24 1997.05 1920 1989.81V1926.59H299Z" fill="#0CE49F"/>
<path fill-rule="evenodd" clip-rule="evenodd" d="M1610 2061.59C1588.15 2061.57 1567.1 2053.36 1551 2038.59C1545.73 2033.63 1544.28 2030.38 1546 2028.59C1547.72 2026.8 1553.25 2030.66 1555 2031.59C1556.75 2032.52 1571.37 2042.59 1609 2042.59C1650.27 2042.59 1679 1999.59 1679 1999.59C1678.92 1999.52 1681.35 1995.57 1683 1996.59C1684.65 1997.61 1683 2003.59 1683 2003.59C1683 2003.59 1663.54 2061.59 1610 2061.59Z" fill="white"/>
<path fill-rule="evenodd" clip-rule="evenodd" d="M429 2124.59C425.972 2124.42 404.8 2123.6 386 2103.59C369.341 2085.85 365 2069.59 365 2069.59C365 2069.59 362.226 2063.01 368 2060.59C373.774 2058.17 377 2064.59 377 2064.59C382.096 2077.82 389.55 2090.02 399 2100.59C413.39 2116.7 426.734 2119.62 430 2120.59C433.266 2121.55 435.149 2122.03 435 2123.59C434.851 2125.15 431.537 2124.73 429 2124.59ZM362 2053.59C361.011 2053.59 360.044 2053.3 359.222 2052.75C358.4 2052.2 357.759 2051.42 357.381 2050.5C357.002 2049.59 356.903 2048.58 357.096 2047.61C357.289 2046.64 357.765 2045.75 358.464 2045.05C359.164 2044.35 360.055 2043.88 361.025 2043.69C361.994 2043.49 363 2043.59 363.913 2043.97C364.827 2044.35 365.608 2044.99 366.157 2045.81C366.707 2046.63 367 2047.6 367 2048.59C367 2049.25 366.871 2049.9 366.619 2050.5C366.368 2051.11 366 2051.66 365.536 2052.12C365.071 2052.59 364.52 2052.96 363.913 2053.21C363.307 2053.46 362.657 2053.59 362 2053.59ZM358 2038.59C357.407 2038.59 356.827 2038.41 356.333 2038.08C355.84 2037.75 355.455 2037.29 355.228 2036.74C355.001 2036.19 354.942 2035.59 355.058 2035C355.173 2034.42 355.459 2033.89 355.879 2033.47C356.298 2033.05 356.833 2032.76 357.415 2032.65C357.997 2032.53 358.6 2032.59 359.148 2032.82C359.696 2033.04 360.165 2033.43 360.494 2033.92C360.824 2034.42 361 2035 361 2035.59C361 2036.38 360.684 2037.15 360.121 2037.71C359.559 2038.27 358.796 2038.59 358 2038.59Z" fill="white"/>
<path fill-rule="evenodd" clip-rule="evenodd" d="M853.439 1949.87C855.015 1950.38 865.539 1954.94 886 1956.59C906.461 1958.24 921.53 1950.67 922.911 1953.35C924.292 1956.04 909.614 1964.49 887.248 1963.59C864.069 1962.66 850.159 1952.75 850.159 1952.75C850.159 1952.75 847.233 1950.89 848 1949.59C848.767 1948.29 851.862 1949.36 853.439 1949.87Z" fill="white"/>
<path fill-rule="evenodd" clip-rule="evenodd" d="M127.62 1940.67C109.833 1977.55 92.564 2011.18 65.931 2033.52C48.5723 2048.08 26.5953 2054.96 0 2054.17V1925.59H134C132.251 1930.01 129.376 1937.02 127.62 1940.67Z" fill="#B5EED5"/>
<path fill-rule="evenodd" clip-rule="evenodd" d="M127.62 1940.67C93.8733 2010.64 51.3333 2041.8 0 2034.17V1925.59H134C132.251 1930.01 129.376 1937.02 127.62 1940.67Z" fill="#0CE49F"/>
<path fill-rule="evenodd" clip-rule="evenodd" d="M299 1928.59C285.971 1845.12 273.693 1789.93 232.533 1784.99C187.23 1779.54 173.162 1830.05 134 1928.59C134 1928.59 174.4 1955.57 215.649 1955.57C256.898 1955.57 299 1928.59 299 1928.59Z" fill="#E9FBF3"/>
<path fill-rule="evenodd" clip-rule="evenodd" d="M134 1928.59C173.086 1830.05 187.127 1779.54 232.342 1784.99C258.176 1788.1 272.61 1811.08 283 1848.46L282.989 1848.44C279.815 1838.51 275.228 1829.08 269.367 1820.45C260.625 1808.03 246.967 1799.42 227.439 1799.42C203.639 1799.42 186.185 1820.46 167.539 1856.5C153.688 1883.28 134.105 1928.35 134 1928.59Z" fill="#B5EED5"/>
<path fill-rule="evenodd" clip-rule="evenodd" d="M177 1799.59C177 1799.59 196.947 1768.59 223 1768.59C242.948 1768.59 254 1778.59 254 1778.59C253.945 1778.62 256.467 1780.79 257.539 1779.89C258.611 1778.98 257.895 1777.88 256.721 1775.94C253.056 1769.89 242.034 1758.59 223 1758.59C186.589 1758.59 174 1797.59 174 1797.59C174 1797.59 173.2 1799.68 174.74 1800.38C175.15 1800.53 175.6 1800.54 176.013 1800.39C176.426 1800.25 176.776 1799.96 177 1799.59Z" fill="white"/>
</svg>
