<svg width="242" height="743" viewBox="0 0 242 743" fill="none" xmlns="http://www.w3.org/2000/svg">
<path d="M-48.3099 20.9241L-460.843 231.126C-482.495 242.158 -491.103 268.654 -480.071 290.306L-269.869 702.839C-258.836 724.491 -232.341 733.099 -210.689 722.067L201.844 511.865C223.496 500.833 232.105 474.337 221.072 452.685L10.8701 40.1521C-0.16233 18.5003 -26.6581 9.89161 -48.3099 20.9241Z" fill="#38B6FF"/>
<path d="M-48.083 21.3696L-460.616 231.572C-482.022 242.479 -490.533 268.673 -479.626 290.079L-269.424 702.612C-258.516 724.018 -232.322 732.529 -210.916 721.622L201.617 511.42C223.023 500.512 231.534 474.318 220.626 452.912L10.4245 40.3791C-0.482599 18.9733 -26.6773 10.4625 -48.083 21.3696Z" stroke="#38B6FF" stroke-linecap="round"/>
</svg>
