<svg width="1069" height="707" viewBox="0 0 1069 707" fill="none" xmlns="http://www.w3.org/2000/svg">
<path d="M100 667H969V675C969 683.487 965.629 691.626 959.627 697.627C953.626 703.629 945.487 707 937 707H132C123.513 707 115.374 703.629 109.373 697.627C103.371 691.626 100 683.487 100 675V667Z" fill="#88F0CE"/>
<path d="M50 627H1019V635C1019 643.487 1015.63 651.626 1009.63 657.627C1003.63 663.629 995.487 667 987 667H82C73.5131 667 65.3737 663.629 59.3726 657.627C53.3714 651.626 50 643.487 50 635V627Z" fill="#C2F8E6"/>
<path d="M1037 0H32C14.3269 0 0 14.3269 0 32V595C0 612.673 14.3269 627 32 627H1037C1054.67 627 1069 612.673 1069 595V32C1069 14.3269 1054.67 0 1037 0Z" fill="#FFBF00" fill-opacity="0.5"/>
<path fill-rule="evenodd" clip-rule="evenodd" d="M518.342 603.47C519.133 603.47 519.906 603.705 520.564 604.144C521.222 604.584 521.735 605.208 522.037 605.939C522.34 606.67 522.419 607.474 522.265 608.25C522.111 609.026 521.73 609.739 521.17 610.298C520.611 610.858 519.898 611.239 519.122 611.393C518.346 611.547 517.542 611.468 516.811 611.165C516.08 610.863 515.455 610.35 515.016 609.692C514.576 609.034 514.342 608.261 514.342 607.47C514.342 606.409 514.763 605.392 515.513 604.642C516.264 603.891 517.281 603.47 518.342 603.47Z" fill="#E4E9EA"/>
<path fill-rule="evenodd" clip-rule="evenodd" d="M566.342 603.47C567.133 603.47 567.906 603.705 568.564 604.144C569.222 604.584 569.735 605.208 570.037 605.939C570.34 606.67 570.419 607.474 570.265 608.25C570.111 609.026 569.73 609.739 569.17 610.298C568.611 610.858 567.898 611.239 567.122 611.393C566.346 611.547 565.542 611.468 564.811 611.165C564.08 610.863 563.455 610.35 563.016 609.692C562.576 609.034 562.342 608.261 562.342 607.47C562.342 606.409 562.763 605.392 563.513 604.642C564.264 603.891 565.281 603.47 566.342 603.47Z" fill="#E4E9EA"/>
<path fill-rule="evenodd" clip-rule="evenodd" d="M550.342 603.47C551.133 603.47 551.906 603.705 552.564 604.144C553.222 604.584 553.735 605.208 554.037 605.939C554.34 606.67 554.419 607.474 554.265 608.25C554.111 609.026 553.73 609.739 553.17 610.298C552.611 610.858 551.898 611.239 551.122 611.393C550.346 611.547 549.542 611.468 548.811 611.165C548.08 610.863 547.455 610.35 547.016 609.692C546.576 609.034 546.342 608.261 546.342 607.47C546.342 606.409 546.763 605.392 547.513 604.642C548.264 603.891 549.281 603.47 550.342 603.47Z" fill="#E4E9EA"/>
<path fill-rule="evenodd" clip-rule="evenodd" d="M534.342 603.47C535.133 603.47 535.906 603.705 536.564 604.144C537.222 604.584 537.735 605.208 538.037 605.939C538.34 606.67 538.419 607.474 538.265 608.25C538.111 609.026 537.73 609.739 537.17 610.298C536.611 610.858 535.898 611.239 535.122 611.393C534.346 611.547 533.542 611.468 532.811 611.165C532.08 610.863 531.455 610.35 531.016 609.692C530.576 609.034 530.342 608.261 530.342 607.47C530.342 606.409 530.763 605.392 531.513 604.642C532.264 603.891 533.281 603.47 534.342 603.47Z" fill="#E4E9EA"/>
<path fill-rule="evenodd" clip-rule="evenodd" d="M502.342 603.47C503.133 603.47 503.906 603.705 504.564 604.144C505.222 604.584 505.735 605.208 506.037 605.939C506.34 606.67 506.419 607.474 506.265 608.25C506.111 609.026 505.73 609.739 505.17 610.298C504.611 610.858 503.898 611.239 503.122 611.393C502.346 611.547 501.542 611.468 500.811 611.165C500.08 610.863 499.455 610.35 499.016 609.692C498.576 609.034 498.342 608.261 498.342 607.47C498.342 606.409 498.763 605.392 499.513 604.642C500.264 603.891 501.281 603.47 502.342 603.47Z" fill="#ACB9BD"/>
<path d="M1013 40H56C47.1634 40 40 47.1634 40 56V571C40 579.837 47.1634 587 56 587H1013C1021.84 587 1029 579.837 1029 571V56C1029 47.1634 1021.84 40 1013 40Z" fill="#95989A"/>
<path d="M532.999 427C555.09 427 572.999 409.091 572.999 387C572.999 364.909 555.09 347 532.999 347C510.908 347 492.999 364.909 492.999 387C492.999 409.091 510.908 427 532.999 427Z" fill="white" fill-opacity="0.2" stroke="white" stroke-opacity="0.4"/>
<path d="M533 419C550.673 419 565 404.673 565 387C565 369.327 550.673 355 533 355C515.327 355 501 369.327 501 387C501 404.673 515.327 419 533 419Z" fill="white"/>
<path fill-rule="evenodd" clip-rule="evenodd" d="M530.05 379.518L540.125 385.828C540.336 385.983 541.442 386.546 541.442 387.3C541.442 388.054 540.336 388.613 540.125 388.768L530.05 395.118C529.892 395.223 529.71 395.289 529.521 395.311C529.332 395.333 529.141 395.31 528.962 395.243C528.794 395.157 528.655 395.024 528.562 394.859C528.47 394.695 528.428 394.506 528.442 394.318V380.318C528.428 380.13 528.47 379.941 528.562 379.777C528.655 379.612 528.794 379.479 528.962 379.393C529.141 379.327 529.332 379.303 529.521 379.325C529.71 379.347 529.892 379.413 530.05 379.518Z" fill="#0994FF"/>
</svg>
